<svg width="1254" height="1254" viewBox="0 0 1254 1254" fill="none" xmlns="http://www.w3.org/2000/svg">
<g clip-path="url(#clip0_1_2)">
<path d="M647.129 335.869C653.927 327.884 660.725 319.899 667.865 312.24C667.403 321.979 675.416 325.864 680.727 330.764C685.942 335.575 693.142 338.192 699.328 342.003C707.301 346.915 715.04 352.21 723.079 357.007C725.522 358.465 728.561 360.641 731.434 356.945C732.051 356.152 733.795 356.235 735.02 355.914C733.939 364.042 732.857 372.169 731.152 380.642C729.076 381.758 727.69 382.942 726.154 383.19C724.382 383.477 722.282 383.384 720.666 382.676C714.703 380.062 708.86 377.17 703.018 374.288C700.896 373.241 698.905 371.928 696.854 370.736C697.091 367.717 697.328 364.698 697.669 360.353C695.892 362.544 694.943 363.714 693.496 364.753C687.06 361.42 681.156 358.151 675.171 355.04C671.236 352.995 667.197 351.147 663.176 349.27C659.8 347.695 656.386 346.201 652.984 344.681C650.161 343.419 647.43 342.182 648.529 338.136C648.688 337.55 647.626 336.633 647.129 335.869Z" fill="#0296EA"/>
<path d="M680.57 385.018C670.818 404.118 661.065 423.218 651.241 442.457C645.504 433.789 641.985 423.806 639.634 413.434C635.545 395.391 634.646 377.203 638.281 358.94C638.438 358.153 638.899 357.426 639.73 356.409C640.573 357.677 640.55 359.416 641.303 360.699C643.453 364.362 645.161 368.964 648.417 371.159C655.302 375.802 663.178 378.946 670.409 383.118C673.734 385.037 676.821 386.282 680.57 385.018Z" fill="#046EE0"/>
<path d="M687.239 297.711C699.517 288.626 711.794 279.542 724.689 270C728.861 290.631 732.552 311.155 734.005 332.445C726.845 334.703 721.67 330.945 716.66 327.697C709.589 323.112 703.156 317.542 696.077 312.97C690.326 309.257 686.661 304.846 687.239 297.711Z" fill="#04B1EF"/>
<path d="M686.892 297.791C686.661 304.846 690.326 309.257 696.077 312.97C703.156 317.542 709.589 323.112 716.66 327.697C721.67 330.945 726.845 334.703 733.945 332.897C734.644 340.257 734.949 347.629 735.137 355.458C733.795 356.235 732.051 356.152 731.434 356.945C728.561 360.641 725.522 358.465 723.079 357.007C715.04 352.21 707.301 346.915 699.328 342.003C693.142 338.192 685.942 335.575 680.727 330.764C675.416 325.864 667.403 321.979 668.189 312.126C674.296 307.08 680.421 302.475 686.892 297.791Z" fill="#03A2ED"/>
<path d="M680.841 384.834C676.821 386.282 673.734 385.037 670.409 383.118C663.178 378.946 655.302 375.802 648.417 371.159C645.161 368.964 643.453 364.362 641.303 360.699C640.55 359.416 640.573 357.677 639.885 356.039C641.85 349.353 644.173 342.774 646.812 336.032C647.626 336.633 648.688 337.55 648.529 338.136C647.43 342.182 650.161 343.419 652.984 344.681C656.386 346.201 659.8 347.695 663.176 349.27C667.197 351.147 671.236 352.995 675.171 355.04C681.156 358.151 687.06 361.42 693.2 364.937C689.305 371.717 685.209 378.183 680.841 384.834Z" fill="#037CE4"/>
<path d="M720.054 406.857C708.879 426.168 692.53 438.985 671.328 445.954C679.347 428.281 688.166 411.179 692.933 392.2C694.382 396.616 697.099 399.405 701.377 400.788C707.606 402.803 713.829 404.833 720.054 406.857Z" fill="#046EE0"/>
<path d="M720.317 406.634C713.829 404.833 707.606 402.802 701.377 400.788C697.099 399.405 694.382 396.616 693.186 391.934C694.026 384.932 695.186 378.14 696.6 371.042C698.905 371.928 700.896 373.241 703.018 374.288C708.86 377.17 714.703 380.062 720.666 382.676C722.282 383.384 724.382 383.477 726.154 383.19C727.69 382.942 729.076 381.758 730.896 380.956C727.702 389.419 724.141 397.915 720.317 406.634Z" fill="#037CE4"/>
<path d="M492.784 470.744C493.542 470.303 494.507 470.131 495.466 469.932C500.918 468.795 501.869 469.62 501.786 475.932C498.795 474.572 495.892 472.786 492.784 470.744Z" fill="#066F2E"/>
<path d="M744.119 97.3672C743.043 98.9463 741.968 100.525 740.273 102.126C737.665 101.576 735.7 100.654 733.68 100.511C729.973 100.247 726.226 100.583 722.508 100.405C718.896 100.232 715.289 99.8129 711.7 99.3505C704.655 98.443 696.715 98.9445 694.897 89.2828C701.091 77.6951 707.279 66.1045 713.489 54.5249C714.031 53.5133 714.709 52.5746 715.941 51.5895C719.734 54.7476 721.948 59.3664 727.752 58.4394C729.304 58.1915 731.002 58.8058 732.626 59.0643C744.821 61.0055 756.925 62.5435 769.314 59.6777C775.236 58.308 782.164 56.3865 786.015 64.4863C786.501 65.5076 789.703 65.6404 791.581 65.4694C793.092 65.3318 794.505 64.1121 795.961 63.3726C798.125 71.0613 800.289 78.7501 802.067 87.1109C801.281 90.7625 799.441 93.9521 802.932 96.3643C802.986 97.7555 803.04 99.1466 802.656 100.999C797.32 103.505 792.608 105.612 787.071 102.718C785.139 101.708 782 101.999 779.764 102.747C768.501 106.515 757.613 102.127 747.462 102.045C746.016 100.022 745.068 98.6946 744.119 97.3672Z" fill="#FD5103"/>
<path d="M799.939 129.371C794.315 148.247 784.513 164.745 771.442 179.373C761.708 190.266 750.448 199.237 737.518 206.068C735.641 207.06 733.661 207.854 730.275 209.406C738.655 182.038 742.166 155.189 744.035 127.918C744.727 132.418 744.854 137.025 745.121 141.623C745.383 146.144 746.589 146.763 750.467 144.778C751.749 144.122 753.218 143.637 754.644 143.496C758.648 143.1 762.675 142.944 766.69 142.655C770.933 142.349 775.17 141.787 779.416 141.726C783.705 141.664 788.001 142.183 792.293 142.167C792.921 142.165 793.637 140.664 794.151 139.764C796.116 136.32 798.016 132.838 799.939 129.371Z" fill="#FC3105"/>
<path d="M800.174 129.031C798.016 132.838 796.116 136.32 794.151 139.764C793.637 140.664 792.921 142.165 792.293 142.167C788.001 142.183 783.705 141.664 779.416 141.726C775.17 141.787 770.933 142.349 766.69 142.655C762.675 142.944 758.648 143.1 754.644 143.496C753.218 143.637 751.749 144.122 750.467 144.778C746.589 146.763 745.383 146.144 745.121 141.623C744.854 137.025 744.727 132.418 744.206 127.541C743.945 117.613 744.017 107.958 744.104 97.8355C745.068 98.6946 746.016 100.022 747.462 102.045C757.613 102.127 768.501 106.516 779.764 102.747C782 101.999 785.139 101.708 787.071 102.718C792.608 105.612 797.32 103.505 802.583 101.412C802.102 110.472 801.256 119.581 800.174 129.031Z" fill="#FD4003"/>
<path d="M795.954 63.0016C794.505 64.1121 793.092 65.3318 791.581 65.4694C789.703 65.6404 786.501 65.5076 786.015 64.4863C782.164 56.3865 775.236 58.308 769.314 59.6777C756.925 62.5435 744.821 61.0055 732.626 59.0643C731.002 58.8057 729.304 58.1915 727.752 58.4394C721.948 59.3664 719.734 54.7476 716.237 51.4252C722.766 42.6993 729.615 34.1251 736.779 25.7952C738.783 30.5197 742.094 31.8274 747.359 29.6342C751.412 27.9466 755.197 27.0953 759.759 28.1095C764.832 29.2373 770.209 29.0019 775.453 29.3568C778.621 29.5712 779.696 28.4058 778.551 25.2096C778.02 23.7269 778.205 21.9878 778.066 20.3649C784.026 34.4535 789.987 48.5421 795.954 63.0016Z" fill="#FD6104"/>
<path d="M725.965 133.374C720.449 149.065 715.325 164.862 713.673 181.532C713.091 187.403 712.738 193.297 712.195 200.267C689.866 174.207 683.386 145.092 688.808 112.737C689.235 114.346 689.307 116.114 689.067 117.839C688.323 123.18 689.627 127.45 695.292 129.018C697.263 129.564 699.518 129.215 701.631 129.082C703.961 128.936 706.422 127.93 708.571 128.419C714.441 129.756 720.176 131.682 725.965 133.374Z" fill="#FC3105"/>
<path d="M726.168 133.077C720.176 131.682 714.441 129.756 708.571 128.419C706.422 127.93 703.961 128.936 701.631 129.082C699.518 129.215 697.263 129.564 695.292 129.018C689.627 127.45 688.323 123.18 689.067 117.839C689.307 116.114 689.235 114.346 688.977 112.389C690.527 104.682 692.406 97.183 694.591 89.4834C696.715 98.9445 704.655 98.443 711.7 99.3505C715.289 99.8129 718.896 100.232 722.508 100.405C726.226 100.583 729.973 100.247 733.68 100.511C735.7 100.654 737.665 101.576 740.012 102.316C735.704 112.584 731.038 122.681 726.168 133.077Z" fill="#FD4003"/>
<path d="M778.05 19.9851C778.205 21.9878 778.02 23.7269 778.551 25.2097C779.696 28.4059 778.621 29.5713 775.453 29.3569C770.209 29.0019 764.832 29.2374 759.759 28.1096C755.197 27.0953 751.412 27.9466 747.359 29.6343C742.094 31.8274 738.783 30.5197 737.081 25.6422C737.476 24.6543 737.884 24.0637 738.92 23.3748C740.742 21.6769 741.935 20.0772 743.129 18.4776C751.37 9.1888 759.612 -0.100021 768.396 -10C771.744 0.28199 774.89 9.94367 778.05 19.9851Z" fill="#F47702"/>
<path d="M803.032 96.0215C799.441 93.9522 801.281 90.7625 802.01 87.5324C802.603 90.0808 802.867 92.8797 803.032 96.0215Z" fill="#FD4003"/>
<path d="M742.84 18.6225C741.935 20.0772 740.742 21.6769 739.178 23.2759C740.055 21.7728 741.303 20.2701 742.84 18.6225Z" fill="#FD6104"/>
<path d="M916.658 331.206C915.102 332.41 913.213 333.667 910.93 334.897C912.465 333.665 914.395 332.462 916.658 331.206Z" fill="#490394"/>
<path d="M907.714 620.013C908.059 620.906 908.106 621.777 908.154 622.648C907.501 622.237 906.848 621.827 906.066 621.127C906.43 620.555 906.924 620.272 907.714 620.013Z" fill="#F00317"/>
<path d="M1023.58 445.98C1016.56 439.103 1009.44 432.604 1001.06 427.229C996.384 424.226 993.213 418.685 989.771 413.989C984.78 407.18 981.561 398.769 971.361 397.492C968.537 397.139 965.996 394.532 963.314 392.579C973.904 392.857 984.503 393.57 995.107 394.162C1010.92 395.044 1026.66 394.665 1042.23 391.372C1043.68 391.065 1045.31 391.612 1046.86 391.762C1046.68 393.309 1046.88 395.024 1046.27 396.378C1038.86 412.869 1031.34 429.307 1023.58 445.98Z" fill="#760598"/>
<path d="M1071.97 596.945C1070.89 596.374 1069.66 595.528 1068.45 594.318C1069.59 594.86 1070.71 595.765 1071.97 596.945Z" fill="#D8240F"/>
<path d="M878.301 404.322C884.712 401.598 891.123 398.874 897.861 396.518C895.953 398.663 893.898 399.856 894.951 403.892C895.813 407.195 896.763 409.89 898.838 412.614C901.311 415.859 902.305 420.424 905.154 423.148C911.135 428.865 916.055 436.133 924.711 438.573C925.419 438.773 925.791 440.097 926.36 440.868C927.505 442.42 928.495 444.145 929.878 445.45C932.853 448.257 936.378 450.542 939.056 453.587C943.384 458.51 947.474 463.694 951.189 469.094C956.862 477.34 962.839 484.639 972.628 488.86C977.368 490.904 984.204 493.286 983.853 499.968C986.402 500.4 988.336 500.728 990.269 501.056C982.399 510.467 974.529 519.877 966.029 529.274C960.409 526.67 960.911 534.22 958.083 534.004C956.591 529.841 955.935 525.832 953.84 522.825C952.067 520.281 948.675 518.828 945.919 517.014C938.982 512.45 932.831 507.576 930.995 498.557C930.243 494.865 928.847 489.828 922.979 490.042C925.641 486.986 928.302 483.93 931.116 480.183C929.965 478.384 928.782 477.069 927.327 476.222C925.252 475.014 922.157 474.736 920.937 473.031C916.632 467.018 910.253 463.63 904.923 458.95C897.17 452.142 889.976 444.589 883.279 436.728C878.824 431.499 875.721 425.131 871.872 419.367C870.137 416.768 868.056 414.4 866.132 411.927C866.132 411.927 866.194 412.047 866.459 412.043C867.252 411.484 867.779 410.928 868.306 410.372C868.306 410.372 868.511 410.059 869.044 410.06C870.152 409.487 870.728 408.914 871.304 408.34C871.304 408.34 871.49 408.039 872.062 408.067C874.523 406.838 876.412 405.58 878.301 404.322Z" fill="#540395"/>
<path d="M884.298 494.149C872.431 499.238 860.242 503.697 848.772 509.563C831.603 518.343 814.95 528.129 798.044 537.428C796.684 538.176 795.07 538.464 793.574 538.966C793.379 537.444 792.862 535.885 793.035 534.406C796.999 500.528 811.187 471.034 831.904 444.389C834.855 440.594 838.166 437.078 841.763 433.652C845.568 439.084 848.969 444.269 852.248 449.529C853.552 451.62 854.248 454.166 855.806 456.011C861.292 462.506 867.198 468.65 872.59 475.218C874.642 477.717 877.174 481.113 876.965 483.912C876.512 489.979 879.256 492.602 884.298 494.149Z" fill="#3B0593"/>
<path d="M912.348 394.048C918.345 392.991 924.324 391.178 930.341 391.044C941.053 390.805 951.788 391.582 962.918 392.447C965.996 394.532 968.537 397.139 971.361 397.492C981.561 398.769 984.78 407.18 989.771 413.989C993.213 418.685 996.384 424.226 1001.06 427.229C1009.44 432.604 1016.56 439.103 1023.32 446.201C1017.71 456.35 1012.11 466.499 1005.96 476.982C1005.12 478.022 1004.83 478.728 1004.54 479.435C1004.54 479.435 1004.47 479.276 1004.11 479.267C999.805 479.881 997.523 477.611 997.001 474.259C996.184 469 992.264 467.06 988.453 464.735C986.238 463.384 984.095 461.898 982.013 460.348C977 456.619 971.924 452.961 967.101 448.998C963.296 445.871 959.311 442.735 956.326 438.889C951.014 432.043 944.426 426.707 937.905 421.198C932.011 416.219 926.035 411.278 920.651 405.776C917.343 402.396 915.08 397.992 912.348 394.048ZM956.976 394.069C957.1 393.96 957.269 393.871 957.33 393.733C957.36 393.667 957.192 393.413 957.108 393.411C956.228 393.386 955.347 393.395 954.466 393.395C954.465 393.615 954.464 393.834 954.464 394.053C955.106 394.086 955.748 394.119 956.976 394.069Z" fill="#650296"/>
<path d="M935.393 553.371C920.914 562.512 904.802 567.147 888.124 569.724C862.109 573.744 836.33 572.816 811.148 564.287C809.489 563.725 807.855 563.092 806.071 561.713C837.411 550.451 866.549 535.491 893.644 516.12C897.227 521.893 900.28 527.492 903.606 532.923C904.685 534.685 906.499 535.99 907.944 537.535C912.643 542.558 918.28 546.876 919.416 554.417C919.903 557.644 921.901 558.799 925.243 557.258C928.525 555.744 932.002 554.65 935.393 553.371Z" fill="#3B0593"/>
<path d="M912.144 393.7C915.08 397.992 917.343 402.396 920.651 405.776C926.035 411.278 932.011 416.219 937.905 421.198C944.426 426.707 951.014 432.043 956.326 438.889C959.311 442.735 963.296 445.871 967.101 448.998C971.924 452.961 977 456.619 982.013 460.348C984.095 461.898 986.238 463.384 988.453 464.735C992.264 467.06 996.184 469 997.001 474.259C997.523 477.611 999.805 479.881 1004.17 479.325C1000.01 486.495 995.421 493.599 990.551 500.88C988.336 500.728 986.402 500.4 983.853 499.968C984.204 493.286 977.368 490.904 972.628 488.86C962.839 484.639 956.862 477.34 951.189 469.094C947.474 463.694 943.384 458.51 939.056 453.587C936.378 450.542 932.853 448.257 929.878 445.45C928.495 444.145 927.505 442.42 926.36 440.868C925.791 440.097 925.419 438.773 924.711 438.573C916.055 436.133 911.135 428.865 905.154 423.148C902.305 420.424 901.311 415.859 898.838 412.614C896.763 409.89 895.813 407.195 894.951 403.892C893.898 399.856 895.953 398.663 898.247 396.531C902.852 395.235 907.396 394.293 912.144 393.7Z" fill="#5D0396"/>
<path d="M884.676 494.146C879.256 492.602 876.512 489.979 876.965 483.912C877.174 481.113 874.642 477.718 872.59 475.218C867.198 468.65 861.292 462.506 855.806 456.011C854.248 454.166 853.552 451.62 852.248 449.529C848.969 444.269 845.568 439.085 842.08 433.475C849.788 426.085 857.631 419.09 865.803 412.011C868.056 414.4 870.137 416.768 871.872 419.367C875.721 425.131 878.824 431.499 883.279 436.728C889.976 444.589 897.17 452.142 904.923 458.95C910.253 463.63 916.632 467.018 920.937 473.032C922.157 474.736 925.252 475.014 927.327 476.222C928.782 477.069 929.965 478.384 931.264 479.893C923.291 482.201 915.221 483.768 907.383 486.111C899.816 488.372 892.487 491.432 884.676 494.146Z" fill="#490394"/>
<path d="M935.743 553.311C932.002 554.65 928.525 555.744 925.243 557.258C921.901 558.799 919.903 557.644 919.416 554.417C918.28 546.876 912.643 542.558 907.944 537.535C906.499 535.99 904.685 534.685 903.606 532.923C900.28 527.492 897.227 521.893 893.95 515.964C893.831 515.568 893.856 515.602 894.216 515.742C895.474 514.94 896.372 513.997 897.269 513.054C898.733 511.811 900.197 510.569 902.28 509.209C903.385 508.524 903.872 507.956 904.359 507.388C910.364 501.697 916.369 496.006 922.677 490.178C928.847 489.828 930.243 494.865 930.994 498.557C932.831 507.576 938.982 512.45 945.919 517.014C948.675 518.828 952.067 520.281 953.84 522.825C955.935 525.832 956.591 529.841 958.083 534.004C960.911 534.22 960.409 526.67 965.752 529.424C956.101 537.474 946.098 545.362 935.743 553.311Z" fill="#490394"/>
<path d="M896.968 513.134C896.372 513.997 895.474 514.94 894.223 515.726C894.802 514.784 895.735 513.999 896.968 513.134Z" fill="#3B0593"/>
<path d="M1004.79 479.297C1004.83 478.728 1005.12 478.022 1005.73 477.247C1005.7 477.838 1005.37 478.498 1004.79 479.297Z" fill="#5D0396"/>
<path d="M904.089 507.472C903.872 507.956 903.385 508.524 902.594 509.125C902.799 508.624 903.31 508.091 904.089 507.472Z" fill="#3B0593"/>
<path d="M909.696 335.233C909.418 335.743 908.842 336.317 907.921 336.881C908.183 336.347 908.79 335.822 909.696 335.233Z" fill="#490394"/>
<path d="M906.716 337.26C906.469 337.757 905.942 338.313 905.09 338.842C905.322 338.316 905.879 337.818 906.716 337.26Z" fill="#490394"/>
<path d="M536.3 183.505C536.324 183.12 536.466 183.01 536.623 182.98C543.795 181.647 550.949 179.417 558.147 179.262C564.6 179.123 568.082 178.307 571.396 172.172C571.818 171.39 572.765 170.89 573.821 170.219C577.875 185.222 581.578 200.266 585.463 216.053C565.585 209.707 549.638 198.861 536.3 183.505Z" fill="#046EE0"/>
<path d="M532.911 179.604C533.592 180.003 534.398 180.696 535.219 181.769C534.501 181.399 533.768 180.649 532.911 179.604Z" fill="#046EE0"/>
<path d="M507.971 132.174C507.158 123.149 506.345 114.123 506 104.655C509.312 105.973 512.07 106.374 515.126 104.416C516.437 103.576 518.264 103.435 519.889 103.207C527.354 102.16 534.994 101.851 542.261 100.032C551.287 97.7737 560.238 95.4238 568.9 91.3242C577.495 87.2567 586.14 79.8176 597.155 84.7098C597.313 84.7796 597.67 84.3981 598.385 83.9359C597.849 82.3888 596.964 80.7649 596.788 79.0674C596.612 77.3787 597.148 75.616 597.373 73.8858C605.54 83.275 611.898 93.7483 615.893 105.795C606.866 108.163 598.049 109.625 589.628 112.321C584.164 114.07 579.045 116.382 573.165 115.208C573.165 115.208 573.226 115.188 573.178 114.882C572.7 114.144 572.27 113.712 571.84 113.279C570.495 111.685 569.15 110.09 566.79 107.291C567.235 112.539 567.567 116.453 567.453 120.777C565.212 121.844 563.466 122.838 561.614 123.105C551.4 124.578 541.14 125.746 530.936 127.285C525.773 128.064 520.692 129.396 515.577 130.493C513.038 131.037 510.506 131.613 507.971 132.174Z" fill="#0296EA"/>
<path d="M597.282 73.5669C597.148 75.6161 596.612 77.3787 596.788 79.0674C596.964 80.7649 597.849 82.3889 598.385 83.9359C597.67 84.3981 597.313 84.7797 597.155 84.7098C586.14 79.8176 577.495 87.2567 568.9 91.3242C560.238 95.4238 551.287 97.7737 542.261 100.032C534.994 101.851 527.354 102.16 519.889 103.207C518.264 103.435 516.437 103.576 515.126 104.416C512.07 106.374 509.312 105.973 506.129 104.207C507.828 92.9735 509.818 81.7356 511.941 70.5229C512.397 68.1132 513.335 65.7946 514.682 63.2612C519.043 64.9426 515.935 67.1664 515.797 69.3132C515.672 71.2472 515.995 73.5527 517.034 75.067C517.517 75.7709 520.209 75.1864 521.827 74.844C528.86 73.3561 535.862 71.7218 542.885 70.1886C544.646 69.8042 546.711 70.0668 548.185 69.2337C557.631 63.8943 569.349 63.1482 577.328 54.8182C577.88 54.2419 579.191 54.3918 580.148 54.204C585.829 60.552 591.51 66.9 597.282 73.5669Z" fill="#03A2ED"/>
<path d="M580.024 53.8966C579.191 54.3918 577.88 54.2419 577.328 54.8182C569.349 63.1482 557.631 63.8943 548.185 69.2336C546.711 70.0668 544.646 69.8042 542.885 70.1886C535.862 71.7217 528.86 73.3561 521.827 74.844C520.209 75.1864 517.517 75.7709 517.034 75.067C515.995 73.5527 515.672 71.2472 515.797 69.3132C515.935 67.1664 519.043 64.9426 514.898 62.9846C517.718 50.1586 521.121 37.4759 524.109 24.6963C525.449 18.9651 525.959 13.0399 527.028 6C546.239 21.2436 563.548 36.8738 580.024 53.8966Z" fill="#04B1EF"/>
<path d="M507.948 132.589C510.506 131.613 513.038 131.037 515.577 130.493C520.692 129.396 525.773 128.064 530.936 127.285C541.14 125.746 551.4 124.578 561.614 123.105C563.466 122.838 565.212 121.844 567.379 121.182C568.599 127.888 569.448 134.597 569.876 141.751C565.741 148.472 559.682 150.669 552.954 151.853C549.597 152.443 546.325 153.51 542.973 154.142C539.267 154.841 535.451 155.032 531.796 155.914C527.362 156.983 523.013 159.17 518.829 155.431C517.289 154.054 515.838 152.576 514.347 151.144C512.207 145.097 510.066 139.05 507.948 132.589Z" fill="#0288E7"/>
<path d="M622.224 128.178C622.562 138.505 623.692 148.881 623.057 159.148C622.044 175.51 616.398 190.609 607.596 204.469C606.943 205.499 606.016 206.354 604.498 208.129C601.26 183.665 596.025 160.797 586.218 138.552C587.298 137.795 588.96 137.419 589.074 137.691C590.023 139.961 590.686 142.349 591.536 145.017C595.847 143.163 600.318 140.525 605.146 139.333C612.305 137.565 618.639 135.143 622.224 128.178Z" fill="#0574E2"/>
<path d="M514.386 151.497C515.838 152.576 517.289 154.054 518.829 155.431C523.013 159.17 527.362 156.983 531.796 155.914C535.451 155.033 539.267 154.841 542.973 154.142C546.325 153.51 549.597 152.443 552.954 151.853C559.682 150.669 565.741 148.472 569.825 142.19C571.648 151.24 573.099 160.295 574.01 169.805C572.765 170.89 571.818 171.39 571.396 172.172C568.082 178.307 564.6 179.123 558.147 179.262C550.949 179.417 543.795 181.647 536.623 182.98C536.466 183.01 536.324 183.12 536.174 183.193C535.901 183.01 535.627 182.828 535.279 182.017C534.398 180.696 533.592 180.003 532.786 179.31C526.666 170.157 520.545 161.004 514.386 151.497Z" fill="#037CE4"/>
<path d="M622.267 127.761C618.639 135.143 612.305 137.565 605.146 139.333C600.318 140.525 595.847 143.163 591.536 145.017C590.686 142.349 590.023 139.961 589.074 137.691C588.96 137.419 587.298 137.795 586.201 138.193C581.803 130.974 577.557 123.432 573.238 115.549C579.045 116.382 584.164 114.07 589.628 112.321C598.049 109.625 606.866 108.163 615.908 106.169C618.305 113.221 620.307 120.282 622.267 127.761Z" fill="#0288E7"/>
<path d="M571.932 113.572C572.27 113.712 572.7 114.144 573.158 114.907C572.798 114.78 572.412 114.322 571.932 113.572Z" fill="#0288E7"/>
<path d="M501.84 476.579C502.309 476.491 502.935 476.655 503.59 477.17C503.078 477.292 502.538 477.061 501.84 476.579Z" fill="#066F2E"/>
<path d="M149.724 616.319C152.241 618.371 154.758 620.423 157.459 623.119C157.286 625.737 157.28 627.863 156.503 629.653C154.675 633.859 151.485 637.716 150.66 642.058C149.356 648.915 146.662 653.684 139.554 655.214C131.259 649.443 122.964 643.671 114.866 637.446C117.71 635.371 121.371 634.366 122.802 632.008C126.285 626.27 128.789 619.929 131.572 613.778C132.856 610.941 134.055 608.038 134.959 605.064C136.013 601.597 136.972 598.058 137.492 594.481C138.418 588.108 138.896 581.672 139.738 575.285C140.102 572.52 140.904 569.813 141.507 567.08C152.234 564.824 162.71 566.298 173.436 569.684C173.948 570.821 174.441 571.914 174.235 572.066C159.766 582.809 157.925 598.027 158.252 615.205C157.253 615.205 155.347 615.069 153.472 615.252C152.2 615.376 150.972 615.948 149.724 616.319Z" fill="#540395"/>
<path d="M139.801 655.458C146.662 653.684 149.356 648.915 150.66 642.058C151.485 637.716 154.675 633.859 156.503 629.653C157.28 627.863 157.286 625.737 157.635 623.403C176.452 633.859 196.29 642.216 217.338 647.641C219.84 648.286 222.323 649.003 225.112 649.768C207.292 662.897 167.679 669.975 139.801 655.458Z" fill="#3B0593"/>
<path d="M141.113 567.015C140.904 569.813 140.102 572.52 139.738 575.285C138.896 581.672 138.418 588.108 137.492 594.481C136.972 598.058 136.013 601.597 134.959 605.064C134.055 608.038 132.856 610.941 131.572 613.778C128.789 619.929 126.285 626.27 122.802 632.008C121.371 634.367 117.71 635.372 114.729 637.136C110.5 633.534 106.605 629.788 102.607 625.353C99.5687 617.436 103.9 611.494 106.221 605.329C107.88 600.922 110.702 596.965 112.811 592.711C114.994 588.306 116.171 583.124 119.248 579.534C121.509 576.898 122.901 574.806 122.569 571.504C128.619 569.986 134.669 568.469 141.113 567.015Z" fill="#650296"/>
<path d="M192.873 578.924C210.127 590.021 221.24 606.092 229.625 624.36C230.728 626.763 231.673 629.239 232.554 631.353C213.149 627.055 193.725 622.753 174.065 618.003C180.079 608.71 186.116 599.764 188.559 588.939C188.776 587.978 189.715 586.687 190.571 586.446C195.424 585.08 194.598 582.185 192.873 578.924Z" fill="#3B0593"/>
<path d="M122.199 571.523C122.901 574.806 121.508 576.898 119.248 579.534C116.171 583.124 114.994 588.306 112.811 592.711C110.702 596.965 107.88 600.922 106.221 605.329C103.9 611.494 99.5687 617.436 102.483 625.049C92.3994 613.334 82.3177 601.25 72.2902 589.122C70.4124 586.85 70.3152 585.038 73.8158 584.132C89.8342 579.99 105.827 575.748 122.199 571.523Z" fill="#760598"/>
<path d="M192.868 578.944C194.598 582.185 195.424 585.08 190.571 586.446C189.715 586.687 188.776 587.978 188.559 588.939C186.116 599.764 180.079 608.71 173.691 617.866C165.826 617.728 158.098 617.279 150.047 616.575C150.972 615.948 152.2 615.376 153.472 615.252C155.347 615.069 157.253 615.205 158.252 615.205C157.925 598.027 159.766 582.809 174.235 572.067C174.441 571.914 173.948 570.821 173.747 569.857C178.209 571.419 182.705 573.292 187.552 575.757C188.587 576.594 189.272 576.837 189.956 577.081C189.956 577.081 190.333 577.083 190.51 577.558C191.41 578.333 192.131 578.633 192.853 578.933C192.853 578.933 192.862 578.964 192.868 578.944Z" fill="#490394"/>
<path d="M192.717 578.679C192.131 578.633 191.41 578.333 190.623 577.709C191.232 577.731 191.906 578.078 192.717 578.679Z" fill="#3B0593"/>
<path d="M189.751 576.8C189.272 576.837 188.587 576.594 187.784 575.986C188.292 575.921 188.919 576.22 189.751 576.8Z" fill="#3B0593"/>
<path d="M279.327 488.416C294.015 486.562 308.703 484.708 323.85 483.343C324.054 485.276 324.093 486.859 323.487 488.135C321.903 491.475 320.645 494.345 322.572 498.381C324.14 501.664 324.046 505.849 324.229 509.656C324.481 514.888 323.642 519.94 321 524.665C318.871 528.475 317.909 533.146 315.169 536.361C309.593 542.902 306.519 550.098 306.317 558.592C306.122 566.812 304.517 574.888 299.742 581.476C296.484 585.971 297.377 588.866 300.249 592.406C304.132 597.192 302.636 605.543 297.322 608.962C289.141 600.795 280.452 593.064 272.936 584.325C266.697 577.071 261.838 568.629 256.659 560.176C257.402 558.295 258.075 556.981 258.272 555.6C259.353 548.022 260.125 540.394 261.405 532.853C262.005 529.318 262.983 525.643 264.711 522.547C268.387 515.961 272.6 509.67 276.719 503.341C279.742 498.696 281.289 493.887 279.327 488.416Z" fill="#FEB804"/>
<path d="M297.488 609.255C302.636 605.543 304.132 597.192 300.249 592.406C297.377 588.866 296.484 585.971 299.742 581.476C304.517 574.888 306.122 566.812 306.317 558.592C306.519 550.098 309.593 542.902 315.169 536.361C317.909 533.146 318.871 528.475 321 524.665C323.642 519.94 324.481 514.888 324.229 509.656C324.046 505.849 324.14 501.664 322.572 498.381C320.645 494.346 321.903 491.475 323.487 488.135C324.093 486.859 324.054 485.276 324.308 483.425C339.254 481.177 353.98 482.896 368.985 486.343C369.93 491.934 373.664 497.462 366.86 501.221C366.426 501.46 366.284 502.398 366.181 503.039C364.872 511.132 363.085 519.193 362.491 527.34C362.105 532.633 362.898 537.681 355.486 537.892C355.383 537.895 355.287 538.142 355.188 538.275C350.457 538.275 345.727 538.275 339.398 538.275C341.715 540.22 343.213 541.478 345.009 543.295C342.276 550.96 339.203 558.049 336.257 565.19C335.811 566.272 335.473 567.813 335.904 568.774C338.623 574.822 339.733 580.705 335.165 586.396C333.262 588.767 331.118 590.97 329.438 593.486C328.116 595.466 326.493 597.805 326.483 599.992C326.457 605.579 327.057 611.198 327.797 616.752C328.277 620.355 327.371 622.555 323.645 623.204C314.981 618.652 306.318 614.1 297.488 609.255Z" fill="#FEAC04"/>
<path d="M355.553 538.447C355.287 538.142 355.383 537.895 355.486 537.892C362.898 537.681 362.105 532.633 362.491 527.34C363.085 519.193 364.872 511.132 366.181 503.039C366.284 502.398 366.426 501.46 366.86 501.221C373.665 497.462 369.93 491.934 369.326 486.541C418.602 498.17 450.622 529.452 469.411 575.714C433.952 555.694 396.72 541.706 355.553 538.447Z" fill="#FD9D05"/>
<path d="M323.893 623.505C327.371 622.555 328.277 620.355 327.797 616.752C327.057 611.198 326.457 605.579 326.483 599.992C326.493 597.805 328.116 595.466 329.438 593.486C331.118 590.97 333.262 588.767 335.165 586.396C339.733 580.705 338.623 574.822 335.904 568.774C335.473 567.813 335.811 566.272 336.257 565.19C339.203 558.049 342.276 550.96 345.308 543.467C353.75 548.236 362.138 553.483 370.654 558.515C376.333 561.872 382.194 564.922 388.307 568.692C389.265 569.461 389.889 569.647 390.513 569.832C390.513 569.832 390.388 569.844 390.377 570.203C389.256 571.775 388.374 573.559 387 574.103C379.323 577.143 373.685 586.172 375.623 594.142C377.365 601.308 373.998 607.173 371.565 613.119C370.029 616.872 366.472 619.797 363.608 623.359C364.7 624.397 365.945 625.582 367.106 626.687C366.425 628.333 365.868 629.68 365.31 631.028C351.067 631.587 337.408 628.81 323.893 623.505Z" fill="#FEA203"/>
<path d="M365.77 631.125C365.868 629.68 366.425 628.333 367.106 626.687C365.945 625.582 364.7 624.397 363.608 623.359C366.472 619.797 370.029 616.872 371.565 613.119C373.998 607.173 377.365 601.308 375.623 594.142C373.685 586.172 379.323 577.143 387 574.103C388.374 573.559 389.256 571.775 390.423 570.161C414.246 580.264 438.011 590.769 462.249 601.484C433.502 621.465 401.507 631.487 365.77 631.125Z" fill="#FD9804"/>
<path d="M278.93 488.36C281.289 493.887 279.742 498.696 276.719 503.341C272.6 509.67 268.387 515.961 264.711 522.547C262.983 525.643 262.005 529.318 261.405 532.853C260.125 540.394 259.353 548.022 258.272 555.6C258.075 556.981 257.402 558.295 256.598 559.833C250.486 551.698 245.016 543.15 238.891 535.1C231.043 524.783 222.661 514.873 214.529 504.772C213.735 503.785 213.078 502.688 212 501.124C234.578 496.774 256.555 492.539 278.93 488.36Z" fill="#FDC406"/>
<path d="M390.347 569.56C389.889 569.647 389.265 569.461 388.52 568.955C388.992 568.852 389.586 569.07 390.347 569.56Z" fill="#FD9804"/>
<path d="M261.309 453.108C261.443 452.953 261.677 452.96 261.847 453.16C261.782 453.352 261.409 453.27 261.309 453.108Z" fill="#117D28"/>
<path d="M1070.81 604.329C1050.93 597.233 1030.5 592.327 1009.58 589.564C1002.53 588.633 995.44 588.045 987 587.156C1008.88 562.653 1035.68 550.827 1067.38 548.389C1068.03 549.66 1068.01 550.614 1068.46 551.212C1073.7 558.189 1076.48 565.964 1075.77 574.722C1075.39 579.45 1074.18 584.119 1073.9 588.847C1073.61 593.874 1076.75 599.504 1070.87 603.365C1070.71 603.471 1070.83 603.998 1070.81 604.329Z" fill="#D5121A"/>
<path d="M1071.04 604.582C1070.83 603.998 1070.71 603.471 1070.87 603.365C1076.75 599.504 1073.61 593.874 1073.9 588.847C1074.18 584.119 1075.39 579.45 1075.77 574.722C1076.48 565.964 1073.7 558.189 1068.46 551.212C1068.01 550.614 1068.03 549.66 1067.83 548.487C1083.19 546.719 1097.66 549.791 1111.37 557.314C1108.38 557.015 1105.38 556.213 1101.82 555.262C1101.82 563.364 1101.91 570.589 1101.77 577.809C1101.72 580.256 1101.46 582.818 1100.67 585.113C1096.63 596.917 1100.7 608.796 1100.23 620.629C1100.1 623.856 1101.71 627.129 1102.34 630.416C1102.76 632.58 1102.99 634.802 1103.05 637.004C1103.15 640.736 1101.12 644.991 1105.88 647.441C1100.19 648.849 1094.49 650.257 1088.17 651.324C1086.31 651.357 1085.07 651.732 1083.83 652.107C1082.76 652.229 1081.69 652.352 1079.94 652.102C1075.78 651.934 1072.29 652.139 1068.8 652.344C1068.05 652.367 1067.3 652.389 1066.24 651.913C1065.82 648.545 1065.77 645.671 1065.58 642.808C1065.47 641.182 1064.39 639.17 1065.01 638.025C1067.6 633.284 1067.18 628.652 1064.53 622.775C1066.32 623.989 1066.89 624.45 1067.53 624.797C1068.98 625.582 1070.46 626.311 1071.92 627.063C1072.56 625.504 1074.06 623.669 1073.67 622.434C1072.02 617.242 1074.03 614.687 1078.9 613.535C1079.27 613.447 1079.5 612.781 1079.8 612.384C1079.95 612.282 1080.1 612.18 1080.64 612.286C1081.23 612.262 1081.45 612.03 1081.66 611.799C1081.8 611.613 1081.95 611.427 1082.42 610.753C1081.67 609.648 1080.58 609.031 1079.5 608.414C1076.76 607.22 1074.02 606.027 1071.04 604.582Z" fill="#D61B15"/>
<path d="M1106.28 647.407C1101.12 644.991 1103.15 640.736 1103.05 637.004C1102.99 634.802 1102.76 632.58 1102.34 630.416C1101.71 627.129 1100.1 623.856 1100.23 620.629C1100.7 608.796 1096.63 596.917 1100.67 585.113C1101.46 582.818 1101.72 580.256 1101.77 577.809C1101.91 570.589 1101.82 563.364 1101.82 555.262C1105.38 556.213 1108.38 557.015 1111.6 557.569C1117.43 561.048 1123.06 564.774 1128.41 568.87C1127.37 570.603 1125.82 572.047 1125.95 573.319C1126.86 582.289 1128.19 591.216 1129.22 600.176C1129.55 603.082 1129.49 606.051 1129.41 608.986C1129.16 617.911 1128.81 626.834 1128.5 635.476C1130.97 635.946 1132.44 636.227 1133.91 636.507C1124.84 640.129 1115.76 643.751 1106.28 647.407Z" fill="#D8240F"/>
<path d="M1079.39 612.397C1079.5 612.781 1079.27 613.447 1078.9 613.534C1074.03 614.687 1072.02 617.242 1073.67 622.433C1074.06 623.669 1072.56 625.504 1071.92 627.063C1070.46 626.311 1068.98 625.582 1067.53 624.797C1066.89 624.45 1066.32 623.989 1064.53 622.775C1067.18 628.652 1067.6 633.284 1065.01 638.024C1064.39 639.17 1065.47 641.182 1065.58 642.808C1065.77 645.671 1065.82 648.545 1065.87 651.802C1048.06 651.061 1032.04 644.568 1017.55 634.863C1008.37 628.718 1000.39 620.767 992.038 613.444C990.282 611.904 989.227 609.564 988.159 606.869C1018.31 613.563 1048.33 618.585 1079.39 612.397Z" fill="#D5121A"/>
<path d="M1134.21 636.479C1132.44 636.227 1130.97 635.946 1128.5 635.476C1128.81 626.834 1129.16 617.911 1129.41 608.986C1129.49 606.051 1129.55 603.082 1129.22 600.176C1128.19 591.216 1126.86 582.289 1125.95 573.319C1125.82 572.047 1127.37 570.603 1128.57 569.165C1128.99 569.09 1128.94 569.117 1128.94 569.464C1130.17 570.657 1131.4 571.504 1132.63 572.351C1134.94 574.455 1137.26 576.559 1139.74 579.294C1140.4 580.185 1140.88 580.443 1141.36 580.701C1141.36 580.701 1141.32 580.795 1141.29 581.101C1141.61 581.485 1141.95 581.563 1142.28 581.642C1142.28 581.642 1142.34 581.758 1142.31 582.079C1142.62 582.477 1142.95 582.554 1143.29 582.63C1143.29 582.63 1143.44 582.75 1143.36 582.968C1143.46 583.191 1143.65 583.196 1143.83 583.202C1154.88 591.831 1165.93 600.461 1177.76 609.698C1166.37 618.956 1153.46 626.453 1139.45 633.419C1137.76 634.114 1136.83 634.815 1135.9 635.516C1135.43 635.828 1134.96 636.14 1134.21 636.479Z" fill="#DA2E09"/>
<path d="M1069.17 652.489C1072.29 652.139 1075.78 651.934 1079.54 652.025C1076.4 652.425 1072.97 652.53 1069.17 652.489Z" fill="#D5121A"/>
<path d="M1084.18 652.161C1085.07 651.732 1086.31 651.357 1087.75 651.281C1086.8 651.791 1085.67 652.003 1084.18 652.161Z" fill="#D5121A"/>
<path d="M1079.7 608.682C1080.58 609.031 1081.67 609.648 1082.72 610.555C1081.75 610.213 1080.83 609.581 1079.7 608.682Z" fill="#D5121A"/>
<path d="M1136.25 635.459C1136.83 634.815 1137.76 634.114 1139.12 633.473C1138.56 634.156 1137.58 634.779 1136.25 635.459Z" fill="#D8240F"/>
<path d="M1141.23 580.465C1140.88 580.443 1140.4 580.185 1139.87 579.6C1140.26 579.592 1140.68 579.911 1141.23 580.465Z" fill="#D8240F"/>
<path d="M1081.42 611.801C1081.45 612.03 1081.23 612.262 1080.91 612.307C1080.8 612.121 1081.17 611.803 1081.42 611.801Z" fill="#D5121A"/>
<path d="M1143.8 583.098C1143.65 583.196 1143.46 583.191 1143.43 583.04C1143.58 582.895 1143.77 582.993 1143.8 583.098Z" fill="#D8240F"/>
<path d="M1142.19 581.456C1141.95 581.563 1141.61 581.485 1141.35 581.109C1141.7 580.883 1141.93 581.036 1142.19 581.456Z" fill="#D8240F"/>
<path d="M1143.2 582.447C1142.95 582.554 1142.62 582.477 1142.37 582.108C1142.73 581.883 1142.95 582.032 1143.2 582.447Z" fill="#D8240F"/>
<path d="M401.811 205.184C399.47 198.758 397.129 192.331 394.843 185.102C395.904 182.89 396.624 181.044 397.975 180.16C400.818 178.3 404.443 177.464 406.945 175.287C414.87 168.392 422.426 161.073 430.125 153.919C441.025 158.013 450.594 164.007 457.54 173.686C452.518 177.93 447.776 181.835 443.026 185.73C441.557 186.935 440.064 188.11 438.582 189.3C438.582 189.3 438.7 189.227 438.619 189.001C438.176 188.651 437.813 188.528 437.451 188.405C437.451 188.405 437.495 188.485 437.589 188.072C437.086 186.194 436.487 184.729 435.889 183.265C433.891 184.19 431.893 185.116 429.549 186.089C425.527 189.177 422.079 192.568 418.109 195.16C413.974 197.86 409.286 199.702 404.945 202.109C403.711 202.793 402.845 204.141 401.811 205.184Z" fill="#650296"/>
<path d="M429.888 153.648C422.426 161.073 414.87 168.392 406.945 175.287C404.443 177.464 400.818 178.3 397.975 180.16C396.624 181.044 395.904 182.89 394.873 184.707C393.559 174.122 392.227 163.134 391.004 152.134C390.568 148.218 390.394 144.274 390 139C403.721 143.976 416.686 148.677 429.888 153.648Z" fill="#760598"/>
<path d="M438.738 189.589C440.064 188.11 441.557 186.935 443.026 185.73C447.776 181.835 452.518 177.93 457.634 174.014C469.745 190.004 473.72 207.463 468.09 228.207C458.968 213.875 451.335 199.988 438.738 189.589Z" fill="#490394"/>
<path d="M436.818 197.066C437.071 197.206 437.261 197.407 437.327 197.997C437.219 198.689 437.386 198.922 437.766 199.025C444.504 210.743 451.243 222.461 458.382 234.876C441.674 236.506 427.735 231.246 415.2 221.261C422.901 213.262 433.916 208.83 436.818 197.066Z" fill="#490394"/>
<path d="M436.778 196.717C433.916 208.83 422.901 213.262 415.032 220.966C410.443 216.03 406.169 210.948 401.852 205.525C402.845 204.141 403.711 202.793 404.945 202.109C409.286 199.702 413.974 197.86 418.109 195.16C422.079 192.568 425.527 189.177 429.706 186.32C430.554 186.626 430.898 186.749 431.243 186.872C433.074 190.038 434.906 193.203 436.778 196.717Z" fill="#5D0396"/>
<path d="M431.152 186.521C430.898 186.749 430.554 186.626 430.052 186.272C431.893 185.116 433.891 184.19 435.889 183.265C436.487 184.729 437.086 186.194 437.544 188.076C435.418 187.313 433.434 186.13 431.437 184.968C431.393 184.943 431.127 185.146 431.102 185.27C431.044 185.561 431.069 185.868 431.152 186.521Z" fill="#490394"/>
<path d="M437.581 188.65C437.813 188.528 438.176 188.651 438.617 189.07C438.368 189.209 438.039 189.052 437.581 188.65Z" fill="#490394"/>
<path d="M437.801 198.756C437.386 198.922 437.219 198.689 437.374 198.202C437.599 198.214 437.718 198.351 437.801 198.756Z" fill="#5D0396"/>
<path d="M670.857 838.312C663.122 845.871 655.431 853.477 647.644 860.982C617.712 889.826 589.548 920.156 567.083 955.39C547.882 985.504 532.875 1017.4 524.883 1052.37C524.738 1053 524.496 1053.62 523.814 1055.79C523.22 1052.28 522.768 1050.2 522.528 1048.1C517.411 1003.34 519.062 958.667 524.136 914.006C526.785 890.692 529.747 867.353 530.879 843.944C532.132 818.057 527.797 793.043 511.213 771.772C500.977 758.642 487.045 750.508 472.005 744.181C441.803 731.474 410.692 729.82 378.928 737.055C376.754 737.55 374.556 737.941 372 737.263C378.613 734.304 385.173 731.219 391.848 728.406C421.442 715.935 452.01 707.851 484.407 708.19C508.288 708.44 531.275 713.698 554.055 720.362C573.604 726.08 593.44 730.392 613.944 730.759C632.98 731.1 651.024 727.384 668.015 718.088C664.121 720.815 659.77 723.103 655.696 725.809C654.748 726.439 654.005 729.415 654.414 729.739C658.511 732.985 662.75 736.093 667.186 738.86C671.848 741.767 676.769 744.258 681.234 746.741C679.49 750.293 676.852 753.174 677.204 755.627C677.576 758.219 680.796 760.403 682.948 762.976C682.573 764.317 682.042 766.212 681.368 768.617C688.526 765.925 689.325 766.127 690.01 770.824C687.806 770.543 685.725 769.936 683.709 770.105C681.011 770.331 680.945 773.606 683.515 776.445C688.749 772.427 690.622 772.837 692.12 779.261C686.704 775.876 684.525 779.364 681.945 782.935C678.739 787.372 675.749 792.754 671.282 795.318C663.366 799.863 670.739 804.785 669.834 809.33C669.706 809.972 672.668 811.23 675.258 812.875C673.334 814.443 671.557 817.102 669.703 817.157C665.683 817.274 661.591 815.413 657.592 815.616C654.885 815.754 652.286 818.029 649.639 819.348C650.832 821.286 651.849 823.366 653.271 825.118C654.483 826.612 656.074 827.846 657.647 828.989C662.009 832.154 666.448 835.212 670.857 838.312Z" fill="#DF6603"/>
<path d="M670.843 838.298C666.448 835.212 662.009 832.154 657.647 828.989C656.074 827.846 654.483 826.612 653.271 825.118C651.849 823.366 650.832 821.286 649.639 819.348C652.286 818.029 654.885 815.754 657.592 815.616C661.591 815.413 665.683 817.274 669.703 817.157C671.557 817.102 673.334 814.443 675.258 812.875C672.668 811.23 669.706 809.972 669.834 809.33C670.739 804.785 663.366 799.863 671.282 795.318C675.749 792.754 678.739 787.372 681.945 782.935C684.525 779.364 686.704 775.876 692.12 779.261C690.622 772.837 688.749 772.427 683.515 776.445C680.945 773.606 681.011 770.331 683.709 770.105C685.725 769.936 687.806 770.543 690.01 770.824C689.325 766.127 688.526 765.925 681.368 768.617C682.042 766.212 682.573 764.317 682.948 762.976C680.796 760.403 677.576 758.219 677.204 755.627C676.852 753.174 679.49 750.293 681.234 746.741C676.769 744.258 671.848 741.767 667.186 738.86C662.75 736.093 658.511 732.985 654.414 729.739C654.005 729.415 654.748 726.439 655.696 725.809C659.77 723.103 664.121 720.815 668.364 718.018C668.357 717.661 668.391 717.69 668.759 717.729C670.904 716.415 672.681 715.061 674.458 713.706C674.458 713.706 674.5 713.799 674.83 713.792C675.93 713.078 676.7 712.37 677.47 711.663C677.533 711.3 677.737 711.053 678.697 710.869C680.018 710.06 680.724 709.305 681.431 708.549C708.318 685.146 724.229 655.053 735.077 621.168C741.465 619.76 745.533 622.021 748.325 627.102C750.21 630.53 751.751 634.465 754.516 637.012C758.33 640.524 763.153 642.942 767.543 645.828C766.058 673.918 760.617 701.232 749.852 727.216C744.273 740.679 737.067 753.468 729.945 766.741C727.012 768.279 724.187 769.185 722.58 771.108C720.448 773.66 719.944 778.766 717.554 779.684C710.104 782.546 708.932 791.068 702.586 794.586C702.137 794.835 702.281 796.037 702.003 796.738C701.47 798.076 701.182 799.821 700.176 800.608C695.857 803.981 694.428 808.452 694.477 813.647C692.765 815.644 691.054 817.641 688.661 819.748C685.978 819.954 683.826 819.607 682.004 820.228C676.758 822.018 679.082 826.155 679.477 829.644C677.318 831.931 675.159 834.217 672.393 836.699C671.469 837.345 671.153 837.797 670.837 838.249C670.837 838.249 670.828 838.285 670.843 838.298ZM687.966 791.647C687.685 790.428 687.404 789.208 687.122 787.988C685.218 788.672 683.205 789.166 681.472 790.152C680.934 790.458 681.155 792.098 681.028 793.127C682.398 793.109 683.778 793.184 685.133 793.036C685.914 792.951 686.656 792.505 687.966 791.647ZM692.826 794.263C692.542 794.534 692.257 794.806 691.973 795.077C692.085 795.195 692.29 795.421 692.297 795.415C692.597 795.161 692.879 794.887 692.826 794.263Z" fill="#E16902"/>
<path d="M675.598 610.803C680.523 640.068 663.443 673.807 635.573 688.942C611.144 702.207 586.373 702.084 561.733 689.098C564.435 685.843 566.589 682.412 569.679 680.465C574.938 677.15 580.846 672.511 586.367 672.66C591.376 672.796 594.928 671.862 598.891 669.698C601.47 668.29 604.197 667.005 607.012 666.206C616.715 663.449 625.345 658.958 632.42 651.642C636.445 647.479 640.641 643.481 644.662 639.315C650.116 633.664 655.882 628.246 660.75 622.121C664.846 616.967 668.561 611.863 675.598 610.803Z" fill="#E76004"/>
<path d="M598.694 1021.89C586.147 1036.73 573.112 1051.19 561.198 1066.52C550.504 1080.28 541.043 1095 531.034 1109.3C530.317 1110.32 529.565 1111.32 528.189 1113.21C526.82 1102.42 527.315 1092.75 528.915 1083.08C533.796 1053.6 545.757 1026.9 561.068 1001.53C563.201 997.995 565.442 994.523 568.005 991.198C576.651 1003.37 583.12 1017.15 598.694 1021.89Z" fill="#066F2E"/>
<path d="M525.236 643.317C521.53 632.976 520.654 622.347 522.521 611.347C524.006 611.738 524.943 612.674 525.945 612.748C532.264 613.215 538.597 613.722 544.927 613.756C550.044 613.782 555.228 613.546 560.265 612.718C565.042 611.932 569.933 610.794 574.282 608.759C578.303 606.877 581.726 603.673 585.312 600.921C589.624 597.612 593.826 594.159 598.083 590.779C600.665 588.729 603.338 586.787 605.835 584.64C609.711 581.308 612.557 577.908 613.936 572.233C616.176 563.01 612.54 552.113 621.94 544.759C620.087 543.974 618.979 543.634 618.011 543.058C617.111 542.523 616.36 541.738 615.543 541.063C627.958 543.392 638.702 549.113 648.07 557.544C646.804 558.365 645.619 558.67 644.712 559.347C638.959 563.634 636.143 569.717 633.644 576.29C628.232 590.523 616.926 600.012 605.603 609.373C601.52 612.748 596.949 615.692 593.481 619.612C589.17 624.486 583.365 626.373 577.804 627.524C567.126 629.733 556.14 630.439 545.291 631.838C537.799 632.804 531.242 635.608 526.25 642.017C525.725 642.572 525.48 642.945 525.236 643.317Z" fill="#F88203"/>
<path d="M767.703 645.525C763.153 642.942 758.33 640.524 754.516 637.012C751.751 634.465 750.21 630.53 748.325 627.102C745.533 622.021 741.465 619.76 735.259 620.831C738.465 603.103 742.835 585.487 745.557 567.621C750.041 538.18 749.757 508.524 746.989 478.894C746.904 477.985 746.979 477.062 747.61 476C750.12 484.728 752.816 493.406 755.102 502.192C760.682 523.641 765.238 545.325 766.538 567.485C767.769 588.472 768.29 609.503 768.891 630.521C769.031 635.408 768.23 640.321 767.703 645.525Z" fill="#D56704"/>
<path d="M526.531 641.833C531.242 635.608 537.799 632.804 545.291 631.838C556.14 630.439 567.126 629.733 577.804 627.524C583.365 626.373 589.17 624.486 593.481 619.612C596.949 615.692 601.52 612.748 605.603 609.373C616.926 600.012 628.232 590.523 633.644 576.29C636.143 569.717 638.959 563.634 644.712 559.347C645.62 558.67 646.804 558.365 648.218 557.846C651.168 560.242 653.759 562.68 656.483 565.766C657.079 566.768 657.544 567.123 658.009 567.478C658.009 567.478 657.871 567.579 657.877 567.805C658.226 568.203 658.569 568.375 658.913 568.547C658.913 568.547 658.772 568.636 658.823 568.862C659.217 569.297 659.56 569.505 659.902 569.714C660.227 569.772 660.444 569.956 660.352 570.772C657.74 573.557 654.566 575.417 653.05 578.185C645.353 592.238 638.49 606.718 624.69 616.347C618.927 620.368 614.366 626.117 608.587 630.108C601.547 634.97 593.776 638.691 585.062 639.953C582.98 640.255 580.717 640.976 579.053 642.203C572.279 647.197 564.22 647.662 556.426 648.681C552.374 649.211 548.109 647.867 543.967 648.031C541.456 648.13 539.027 649.618 536.505 650.257C533.809 650.939 531.047 651.356 528.314 651.889C528.014 651.411 527.714 650.933 527.694 649.955C527.494 646.914 527.012 644.374 526.531 641.833Z" fill="#F47702"/>
<path d="M675.678 610.472C668.561 611.863 664.846 616.967 660.75 622.121C655.882 628.246 650.116 633.664 644.662 639.315C640.641 643.481 636.445 647.479 632.42 651.642C625.345 658.958 616.715 663.449 607.012 666.206C604.197 667.005 601.47 668.29 598.891 669.698C594.928 671.862 591.376 672.796 586.367 672.66C580.846 672.511 574.938 677.15 569.679 680.465C566.589 682.412 564.435 685.843 561.557 688.791C555.635 684.862 550.017 680.749 544.564 676.156C545.869 673.654 547.001 671.628 548.15 669.612C550.039 666.297 557.65 663.089 561.415 663.163C565.62 663.245 570.109 663.225 574.007 661.886C583.783 658.528 593.316 654.449 602.909 650.567C611.759 646.985 619.952 642.479 626.124 634.821C629.659 630.436 633.65 626.407 637.561 622.338C641.031 618.729 646.103 616.416 646.725 610.562C646.784 610.004 647.398 609.348 647.929 609.021C655.287 604.484 657.792 596.134 663.029 589.947C664.682 587.995 666.824 586.458 668.742 584.731C670.371 589.168 671.999 593.605 673.336 598.619C673.483 600.071 673.921 600.946 674.359 601.821C674.481 602.255 674.604 602.69 674.382 603.691C674.519 605.781 675 607.302 675.481 608.824C675.574 609.263 675.666 609.702 675.678 610.472Z" fill="#EB6702"/>
<path d="M621.605 923.02C631.924 913.102 642.243 903.184 653.01 893.487C656.376 896.476 659.397 899.144 662.191 902.033C667.809 907.842 673.604 913.521 678.769 919.718C684.769 926.918 692.336 928.068 700.85 926.924C691.689 936.748 682.642 946.68 673.31 956.337C669.861 959.906 665.742 962.827 661.268 965.95C660.113 964.099 659.642 962.335 659.119 960.588C658.448 958.346 658.372 955.488 656.912 954.009C653.588 950.641 649.438 948.107 645.872 944.954C637.704 937.732 629.685 930.342 621.605 923.02Z" fill="#329621"/>
<path d="M668.718 584.407C666.824 586.458 664.682 587.995 663.029 589.947C657.792 596.134 655.287 604.484 647.929 609.021C647.398 609.348 646.784 610.004 646.725 610.562C646.103 616.416 641.031 618.729 637.561 622.338C633.65 626.407 629.659 630.436 626.124 634.821C619.952 642.479 611.759 646.985 602.909 650.567C593.316 654.449 583.783 658.528 574.007 661.886C570.109 663.225 565.62 663.245 561.415 663.163C557.65 663.089 550.039 666.297 548.15 669.612C547.001 671.628 545.869 673.654 544.398 675.851C538.837 668.225 533.608 660.422 528.346 652.254C531.047 651.356 533.809 650.939 536.505 650.257C539.027 649.618 541.456 648.13 543.967 648.031C548.109 647.867 552.374 649.211 556.426 648.681C564.22 647.662 572.279 647.197 579.053 642.203C580.717 640.976 582.98 640.255 585.062 639.953C593.776 638.691 601.547 634.97 608.587 630.108C614.366 626.117 618.927 620.368 624.69 616.347C638.49 606.718 645.353 592.238 653.05 578.185C654.566 575.417 657.74 573.557 660.37 570.994C662.32 573.371 664.049 576.033 665.796 579.35C666.156 580.247 666.498 580.49 666.841 580.732C667.458 581.849 668.076 582.966 668.718 584.407Z" fill="#F06F02"/>
<path d="M615.128 540.886C616.36 541.738 617.111 542.523 618.011 543.058C618.979 543.634 620.087 543.974 621.94 544.759C612.54 552.113 616.176 563.01 613.936 572.233C612.557 577.908 609.711 581.308 605.835 584.64C603.338 586.787 600.665 588.729 598.083 590.779C593.826 594.159 589.624 597.612 585.312 600.921C581.726 603.673 578.303 606.877 574.282 608.759C569.933 610.794 565.042 611.932 560.265 612.718C555.228 613.546 550.044 613.782 544.927 613.756C538.597 613.722 532.264 613.215 525.945 612.748C524.943 612.674 524.006 611.738 522.716 610.98C524.414 602.934 526.436 595.108 528.945 587.486C531.617 591.724 534.844 593.657 539.535 592.859C540.49 592.697 541.535 592.834 542.505 593.015C555.048 595.356 566.818 592.898 577.46 586.261C582.094 583.372 585.753 578.897 589.79 575.074C598.125 567.185 603.074 558.043 600.662 546.06C600.347 544.497 601.06 542.726 601.241 541.446C599.633 540.742 598.108 540.074 596.584 539.407C602.627 539.841 608.67 540.275 615.128 540.886Z" fill="#FC8F03"/>
<path d="M701.127 926.756C692.336 928.068 684.769 926.918 678.769 919.718C673.604 913.521 667.809 907.842 662.191 902.033C659.397 899.144 656.376 896.476 653.327 893.322C662.158 884.696 671.121 876.457 680.636 868.266C682.684 869.788 684.03 871.469 685.706 872.699C690.303 876.072 695.816 878.551 699.545 882.671C705.865 889.652 714.358 890.446 722.397 892.832C715.4 904.083 708.402 915.335 701.127 926.756Z" fill="#43A11F"/>
<path d="M621.316 923.173C629.685 930.342 637.704 937.732 645.872 944.954C649.438 948.108 653.588 950.641 656.912 954.009C658.372 955.488 658.448 958.346 659.119 960.588C659.642 962.336 660.113 964.099 660.974 966.074C654.598 972.024 647.853 977.755 640.59 983.341C631.354 976.027 622.44 969.081 613.994 961.606C608.999 957.185 604.744 951.928 600.156 947.046C607.113 939.139 614.07 931.232 621.316 923.173Z" fill="#248C23"/>
<path d="M672.649 1035.07C660.878 1046.78 646.878 1055.29 632.006 1062.81C629.764 1059.72 628.516 1056.04 625.953 1054.3C618.99 1049.57 611.465 1045.66 604.183 1041.39C603.801 1041.17 603.61 1040.62 603.331 1040.22C615.807 1030.4 628.284 1020.58 641.226 1010.99C643.698 1016.31 648.005 1019.03 652.379 1021.8C659.205 1026.11 665.899 1030.64 672.649 1035.07Z" fill="#329621"/>
<path d="M698.502 849.82C706.576 839.676 714.987 829.779 722.642 819.328C733.264 804.827 740.284 788.476 745.465 771.314C746.016 769.488 746.683 767.696 747.748 766.012C746.048 800.677 742.021 834.925 731.321 868.456C728.404 864.646 726.596 860.01 720.593 860.228C719.869 860.255 719.175 858.929 718.339 858.457C712.03 854.888 706.548 849.399 698.502 849.82Z" fill="#58B01B"/>
<path d="M599.868 947.241C604.744 951.927 608.999 957.185 613.994 961.606C622.44 969.081 631.354 976.027 640.276 983.45C633.441 989.736 626.401 995.768 618.663 1001.8C611.003 997.389 603.672 993.462 597.188 988.442C591.261 983.853 582.846 980.251 585.313 969.953C585.503 969.158 584.668 968.116 584.309 967.189C589.399 960.605 594.489 954.021 599.868 947.241Z" fill="#1A8426"/>
<path d="M596.175 539.286C598.108 540.074 599.633 540.742 601.241 541.446C601.06 542.726 600.347 544.497 600.662 546.06C603.074 558.043 598.125 567.185 589.79 575.074C585.753 578.897 582.094 583.372 577.46 586.261C566.818 592.898 555.048 595.356 542.505 593.015C541.535 592.834 540.49 592.697 539.535 592.859C534.844 593.657 531.617 591.724 529.279 587.293C531.388 582.325 533.649 577.754 536.563 573.036C541.52 575.992 546.426 576.092 551.445 575.852C554.431 575.709 557.502 576.232 560.402 575.714C563.39 575.18 566.661 574.351 569.04 572.604C579.701 564.779 583.527 553.418 584.51 540.774C588.262 540.238 592.014 539.702 596.175 539.286Z" fill="#FD9D05"/>
<path d="M668.672 987.884C686.414 971.274 701.315 952.409 713.543 931.417C713.757 931.05 714.217 930.826 715.336 929.883C713.965 955.773 708.765 979.842 697.061 1002.8C695.67 1004.8 694.894 1006.53 694.117 1008.26C694.117 1008.26 694.044 1008.33 693.691 1008.19C692.395 1006.96 691.58 1005.73 690.49 1004.82C685.614 1000.79 681.146 995.722 675.547 993.298C672.348 991.912 669.906 991.132 668.672 987.884Z" fill="#53AD1F"/>
<path d="M668.378 988.047C669.906 991.132 672.348 991.912 675.547 993.298C681.146 995.722 685.614 1000.79 690.49 1004.82C691.58 1005.73 692.395 1006.96 693.696 1008.24C687.131 1017.23 680.208 1026.03 672.967 1034.95C665.899 1030.64 659.205 1026.11 652.379 1021.8C648.005 1019.03 643.698 1016.31 641.553 1010.87C650.304 1003.09 659.194 995.649 668.378 988.047Z" fill="#43A11F"/>
<path d="M698.2 849.959C706.548 849.399 712.03 854.888 718.339 858.457C719.175 858.929 719.869 860.255 720.593 860.228C726.596 860.01 728.404 864.646 731.104 868.749C728.591 876.636 725.734 884.464 722.637 892.562C714.358 890.446 705.865 889.652 699.545 882.671C695.816 878.551 690.303 876.072 685.706 872.699C684.03 871.469 682.684 869.788 680.932 868.109C686.418 861.969 692.158 856.033 698.2 849.959Z" fill="#53AD1F"/>
<path d="M584.02 967.4C584.668 968.116 585.503 969.158 585.313 969.953C582.846 980.251 591.261 983.853 597.188 988.442C603.672 993.463 611.003 997.389 618.323 1001.84C612.223 1008.47 605.766 1015.06 599.002 1021.77C583.12 1017.15 576.651 1003.37 568.275 990.999C568.172 990.626 568.184 990.688 568.477 990.578C568.83 990.104 568.89 989.74 568.95 989.375C568.95 989.375 569.043 989.29 569.233 989.352C569.556 989.417 569.69 989.42 569.823 989.423C569.689 989.22 569.556 989.017 569.422 988.815C574.192 981.747 578.961 974.679 584.02 967.4Z" fill="#117D28"/>
<path d="M606.784 1075.92C591.924 1085.3 576.927 1094.46 562.27 1104.14C556.348 1108.05 551.168 1113.09 545.487 1117.74C546.313 1108.25 569.675 1072.95 585.998 1057.11C588.478 1063.46 593.471 1067.03 598.301 1070.65C600.955 1072.64 603.946 1074.18 606.784 1075.92Z" fill="#117D28"/>
<path d="M607.133 1075.89C603.946 1074.18 600.955 1072.64 598.301 1070.65C593.471 1067.03 588.478 1063.46 586.29 1056.97C586.158 1056.62 586.168 1056.68 586.532 1056.6C587.398 1055.77 587.899 1055.03 588.4 1054.28C593.171 1049.71 597.941 1045.13 603.021 1040.39C603.61 1040.62 603.801 1041.17 604.183 1041.39C611.465 1045.66 618.99 1049.57 625.953 1054.3C628.516 1056.04 629.764 1059.72 631.655 1062.92C623.626 1067.5 615.554 1071.68 607.133 1075.89Z" fill="#1F8825"/>
<path d="M584.11 540.73C583.527 553.418 579.701 564.779 569.04 572.604C566.661 574.351 563.39 575.18 560.402 575.714C557.502 576.232 554.431 575.709 551.445 575.852C546.426 576.092 541.52 575.992 536.84 572.843C547.971 555.853 563.73 545.165 584.11 540.73Z" fill="#FEAC04"/>
<path d="M694.771 813.504C694.428 808.452 695.857 803.981 700.176 800.608C701.182 799.821 701.47 798.076 702.003 796.738C702.281 796.037 702.137 794.835 702.586 794.586C708.932 791.068 710.104 782.546 717.554 779.684C719.944 778.766 720.448 773.66 722.58 771.108C724.187 769.185 727.012 768.279 729.708 766.962C720.464 783.99 708.202 799.006 694.771 813.504Z" fill="#DF6603"/>
<path d="M679.773 829.507C679.082 826.155 676.758 822.018 682.004 820.228C683.826 819.607 685.978 819.954 688.365 819.884C685.857 823.063 682.964 826.217 679.773 829.507Z" fill="#DF6603"/>
<path d="M674.126 713.776C672.681 715.06 670.904 716.415 668.742 717.732C670.169 716.412 671.982 715.129 674.126 713.776Z" fill="#DF6603"/>
<path d="M526.25 642.017C527.012 644.374 527.494 646.914 527.708 649.662C526.711 647.918 525.98 645.968 525.242 643.667C525.48 642.945 525.725 642.572 526.25 642.017Z" fill="#F06F02"/>
<path d="M675.539 608.454C675 607.302 674.519 605.781 674.319 604.028C674.932 605.227 675.265 606.655 675.539 608.454Z" fill="#E76004"/>
<path d="M694.375 1008.05C694.894 1006.53 695.67 1004.8 696.837 1003.03C696.362 1004.61 695.497 1006.23 694.375 1008.05Z" fill="#43A11F"/>
<path d="M674.398 601.504C673.921 600.946 673.483 600.071 673.298 599.007C673.847 599.608 674.142 600.397 674.398 601.504Z" fill="#E76004"/>
<path d="M681.133 708.648C680.724 709.305 680.018 710.06 678.944 710.829C679.329 710.144 680.083 709.446 681.133 708.648Z" fill="#DF6603"/>
<path d="M677.159 711.729C676.7 712.37 675.93 713.078 674.786 713.766C675.224 713.097 676.036 712.446 677.159 711.729Z" fill="#DF6603"/>
<path d="M588.111 1054.44C587.899 1055.03 587.398 1055.77 586.542 1056.57C586.733 1055.95 587.278 1055.28 588.111 1054.44Z" fill="#117D28"/>
<path d="M671.102 838.157C671.153 837.797 671.469 837.345 672.089 836.84C672.05 837.213 671.708 837.639 671.102 838.157Z" fill="#DF6603"/>
<path d="M480.531 566.831C480.995 566.801 481.615 567.036 482.265 567.623C481.759 567.683 481.223 567.39 480.531 566.831Z" fill="#066F2E"/>
<path d="M657.922 567.197C657.544 567.123 657.079 566.768 656.588 566.082C656.986 566.139 657.411 566.528 657.922 567.197Z" fill="#F06F02"/>
<path d="M805.428 712.363C805.467 712.502 805.23 712.633 805.23 712.633C805.23 712.633 804.974 712.545 804.928 712.418C805.029 712.101 805.198 712.078 805.428 712.363Z" fill="#FD6104"/>
<path d="M666.753 580.424C666.498 580.49 666.156 580.247 665.727 579.692C665.983 579.624 666.324 579.87 666.753 580.424Z" fill="#EB6702"/>
<path d="M568.749 989.533C568.89 989.74 568.83 990.104 568.48 990.553C568.309 990.322 568.428 990.007 568.749 989.533Z" fill="#066F2E"/>
<path d="M569.295 988.863C569.556 989.017 569.689 989.22 569.823 989.423C569.69 989.42 569.556 989.417 569.254 989.293C569.086 989.171 569.167 988.911 569.295 988.863Z" fill="#066F2E"/>
<path d="M659.804 569.431C659.56 569.505 659.217 569.297 658.82 568.779C659.079 568.696 659.392 568.922 659.804 569.431Z" fill="#F06F02"/>
<path d="M658.834 568.284C658.569 568.375 658.226 568.203 657.883 567.72C658.174 567.613 658.464 567.817 658.834 568.284Z" fill="#F06F02"/>
<path d="M687.691 791.934C686.656 792.505 685.914 792.951 685.133 793.036C683.778 793.184 682.398 793.109 681.028 793.127C681.155 792.098 680.934 790.458 681.472 790.152C683.205 789.166 685.218 788.672 687.122 787.988C687.404 789.208 687.685 790.428 687.691 791.934Z" fill="#DF6603"/>
<path d="M692.995 794.439C692.879 794.887 692.597 795.161 692.297 795.415C692.29 795.421 692.085 795.195 691.973 795.077C692.257 794.806 692.542 794.534 692.995 794.439Z" fill="#DF6603"/>
<path d="M305.098 334.674C305.902 336.061 306.466 337.677 307.545 338.8C319.066 350.782 327.284 364.961 335.081 379.472C343.703 395.518 352.591 411.42 361.559 427.742C350.169 430.862 338.355 432.225 326.373 431.012C299.729 428.315 279.482 415.092 265.431 392.528C261.754 386.624 259.305 379.948 256.386 373.583C254.489 369.448 252.762 365.234 251.295 360.704C252.863 361.929 254.094 363.507 255.709 365.576C258.028 352.331 258.392 352.01 271.161 349.258C272.514 348.966 273.872 348.123 274.949 347.208C282.004 341.213 288.982 335.127 295.589 329.413C297.137 326.965 298.398 322.873 300.064 322.701C307.444 321.937 313.043 318.145 318.488 313.822C321.133 311.722 323.195 308.162 326.121 307.3C331.516 305.711 334.937 303.292 335.453 297.483C335.497 296.998 336.345 296.584 336.82 296.137C352.803 306.617 363.427 321.46 371.149 338.59C381.098 360.661 384.485 383.744 381.361 407.76C381.113 409.666 380.591 411.535 379.856 415.054C378.132 412.372 377.127 411.038 376.359 409.579C366.004 389.891 354.304 371.019 337.531 356.191C328.017 347.781 316.969 341.106 306.013 333.402C304.579 332.887 303.746 332.62 302.913 332.353C302.812 332.561 302.71 332.77 302.609 332.978C303.439 333.543 304.268 334.109 305.098 334.674Z" fill="#F4041A"/>
<path d="M336.625 295.848C336.345 296.584 335.497 296.998 335.453 297.483C334.937 303.292 331.516 305.711 326.121 307.3C323.195 308.162 321.133 311.722 318.488 313.822C313.043 318.145 307.444 321.937 300.064 322.701C298.398 322.873 297.137 326.965 295.589 329.413C288.982 335.127 282.004 341.213 274.949 347.208C273.872 348.123 272.514 348.966 271.161 349.258C258.392 352.01 258.028 352.331 255.709 365.576C254.094 363.507 252.863 361.929 251.232 360.298C246.584 343.836 242.645 327.34 238.005 311.043C233.137 293.95 227.57 277.057 222.4 260.049C221.969 258.631 221.79 256.803 222.358 255.56C222.634 254.956 225.041 254.837 226.256 255.22C255.441 264.419 284.711 273.373 313.678 283.215C321.731 285.951 328.871 291.371 336.625 295.848Z" fill="#E9041F"/>
<path d="M305.309 334.397C304.268 334.109 303.439 333.543 302.609 332.978C302.71 332.77 302.812 332.561 302.913 332.353C303.746 332.62 304.579 332.887 305.655 333.346C305.772 333.732 305.646 333.926 305.309 334.397Z" fill="#FEFDFD"/>
<path d="M244.701 724.098C255.52 716.457 266.34 708.816 277.524 701.52C280.893 706.42 280.937 712.068 284.483 716.763C287.662 720.972 288.006 727.27 289.894 732.542C290.394 733.938 291.926 734.997 293.071 736.123C294.782 737.806 296.57 739.411 298.325 741.049C296.197 743.158 294.069 745.267 291.566 747.793C291.177 748.451 291.162 748.694 291.147 748.937C291.555 748.859 291.963 748.782 292.371 748.705C295.921 748.183 299.472 747.661 303.383 747.555C302.181 751.362 299.189 754.802 299.303 758.136C299.82 773.226 307.755 786.124 313.462 799.534C316.491 806.651 320.628 813.209 321.319 821.137C313.466 822.797 305.613 824.457 297.279 825.721C295.5 823.275 293.165 821.257 293.098 819.167C292.901 812.935 290.35 807.736 287.571 802.466C281.436 790.831 277.172 778.36 269.736 767.222C264.071 758.736 260.933 748.555 256.732 739.101C254.034 733.029 252.714 725.892 244.701 724.098Z" fill="#288E23"/>
<path d="M244.388 724.204C252.714 725.892 254.034 733.029 256.732 739.101C260.933 748.555 264.071 758.736 269.736 767.222C277.172 778.36 281.436 790.831 287.571 802.466C290.35 807.736 292.901 812.935 293.098 819.167C293.165 821.257 295.5 823.275 296.842 825.674C281.988 827.567 267.628 824.604 253.307 820.273C254.125 818.187 255.648 816.697 255.776 815.094C256.581 805.068 250.662 797.196 246.594 788.855C241.032 777.449 234.715 766.414 228.783 755.187C227.01 751.83 225.444 748.365 223.782 744.95C230.547 738.07 237.311 731.19 244.388 724.204Z" fill="#3A9B1E"/>
<path d="M340.882 744.135C357.818 744.052 374.755 744.037 391.689 743.836C395.951 743.786 400.205 743.138 405.786 742.648C395.619 766.811 378.201 783.371 359.195 798.625C358.742 797.7 358.736 796.997 358.461 796.424C353.562 786.194 348.557 776.013 343.763 765.734C342.753 763.568 342.206 761.083 341.942 758.691C341.408 753.859 341.215 748.989 340.882 744.135Z" fill="#07762C"/>
<path d="M305.889 691.279C311.794 690.021 317.646 688.09 323.612 687.627C345.207 685.953 366.514 687.236 386.637 696.351C390.638 698.163 394.358 700.595 398.141 703.37C373.064 706.131 348.546 710.167 325.48 722.233C322.914 719.994 320.652 718.08 319.268 715.662C315.124 708.421 315.272 698.691 306.576 694.041C306.015 693.741 306.103 692.228 305.889 691.279Z" fill="#066F2E"/>
<path d="M223.489 745.118C225.444 748.365 227.01 751.83 228.783 755.187C234.715 766.414 241.032 777.449 246.594 788.855C250.662 797.196 256.581 805.068 255.776 815.094C255.648 816.697 254.125 818.187 253.015 820.045C246.394 818.635 240.004 816.91 233.183 814.717C229.833 809.084 224.174 806.304 222.103 800.064C217.932 787.498 212.637 775.305 207.806 762.958C212.936 757.067 218.066 751.176 223.489 745.118Z" fill="#4AA61B"/>
<path d="M340.495 744.022C341.215 748.989 341.408 753.859 341.942 758.691C342.206 761.083 342.753 763.568 343.763 765.735C348.557 776.013 353.562 786.194 358.461 796.424C358.736 796.998 358.742 797.7 358.873 798.717C352.436 803.718 346.001 808.346 339.225 812.596C338.654 809.763 339.115 806.958 338.077 804.912C333.251 795.393 327.869 786.156 322.985 776.665C320.891 772.595 318.517 768.259 318.047 763.855C317.189 755.81 313.893 749.943 306.86 746.101C313.227 745.379 319.593 744.657 326.69 744.32C330.583 744.497 333.748 744.289 336.912 744.081C337.977 744.024 339.043 743.967 340.495 744.022Z" fill="#168226"/>
<path d="M305.481 691.168C306.103 692.228 306.015 693.741 306.576 694.041C315.272 698.691 315.124 708.421 319.268 715.662C320.652 718.08 322.914 719.994 325.141 722.295C316.662 728.558 307.817 734.664 298.649 740.909C296.57 739.411 294.782 737.806 293.071 736.123C291.926 734.997 290.394 733.938 289.894 732.542C288.006 727.27 287.662 720.972 284.483 716.763C280.937 712.068 280.893 706.42 277.881 701.48C286.94 697.749 296.007 694.403 305.481 691.168Z" fill="#168226"/>
<path d="M306.522 746.034C313.893 749.943 317.189 755.81 318.047 763.855C318.517 768.259 320.891 772.595 322.985 776.665C327.869 786.156 333.251 795.393 338.077 804.912C339.115 806.958 338.654 809.763 338.884 812.652C333.221 815.785 327.558 818.485 321.607 821.161C320.628 813.209 316.491 806.651 313.462 799.534C307.755 786.124 299.82 773.226 299.303 758.136C299.189 754.802 302.181 751.362 303.813 747.626C304.65 746.843 305.418 746.405 306.522 746.034Z" fill="#1F8825"/>
<path d="M207.514 763.132C212.637 775.305 217.932 787.498 222.103 800.064C224.174 806.304 229.833 809.084 232.823 814.569C221.128 812.753 209.408 810.285 197.575 808.618C191.707 807.791 185.631 808.473 179.65 808.384C178.43 808.366 177.216 807.956 176 807.727C176.326 806.531 176.341 805.107 177.025 804.174C187.039 790.513 197.141 776.917 207.514 763.132Z" fill="#58B01B"/>
<path d="M336.541 743.972C333.748 744.289 330.583 744.497 327.144 744.407C329.969 744.027 333.069 743.944 336.541 743.972Z" fill="#07762C"/>
<path d="M292.217 748.525C291.963 748.782 291.555 748.859 291.147 748.937C291.162 748.694 291.177 748.451 291.461 748.109C291.731 748.009 292.063 748.346 292.217 748.525Z" fill="#FEFDFD"/>
<path d="M973.288 206.255C973.01 206.543 972.768 206.453 972.76 206.344C971.649 192.461 960.327 191.201 950.388 188.233C946.353 187.029 941.696 186.662 940.853 180.771C951.79 174.215 962.731 168.04 973.434 162C973.434 176.544 973.434 191.206 973.288 206.255Z" fill="#58B01B"/>
<path d="M874.408 216.232C874.457 216.471 874.188 216.856 873.57 217.344C873.51 217.09 873.801 216.733 874.408 216.232Z" fill="#248C23"/>
<path d="M876.734 315.518C867.277 329.906 857.821 344.293 848.067 359.132C838.061 331.908 834.637 304.465 841.827 276.033C842.381 277.312 842.452 278.707 842.471 279.094C846.265 281.991 849.566 284.398 852.741 286.962C858.744 291.81 862.615 298.92 869.965 302.47C872.898 303.886 874.612 306.976 873.278 310.964C872.423 313.52 873.503 315.575 876.734 315.518Z" fill="#066F2E"/>
<path d="M970.132 252.819C970.205 249.259 970.578 245.5 971.328 241.643C971.279 245.237 970.855 248.93 970.132 252.819Z" fill="#329621"/>
<path d="M850.763 248.756C851.036 248.764 851.166 248.963 851.266 249.175C851.273 249.191 851.069 249.306 850.774 249.407C850.584 249.439 850.612 248.949 850.763 248.756Z" fill="#07762C"/>
<path d="M969.425 256.921C969.287 256.902 969.129 256.841 969.209 256.788C969.446 256.796 969.405 256.879 969.425 256.921Z" fill="#3A9B1E"/>
<path d="M1043.22 355.478C1042.28 355.487 1041.64 355.454 1041 355.421C1041 355.201 1041 354.982 1041 354.763C1041.88 354.763 1042.76 354.754 1043.64 354.778C1043.73 354.78 1043.89 355.034 1043.87 355.101C1043.8 355.238 1043.64 355.328 1043.22 355.478Z" fill="#760598"/>
<path d="M987.313 357.99C987.367 357.958 987.258 358.022 987.313 357.99Z" fill="#540395"/>
<path d="M918.835 269.499C918.684 269.349 918.533 269.2 917.91 269.053C917.287 269.354 917.136 269.652 916.984 269.95C914.894 272.08 912.803 274.21 910.323 275.925C909.683 266.593 908.782 265.721 899.987 263.02C893.855 261.137 886.888 259.956 882.094 256.178C873.814 249.651 863.735 245.013 857.916 235.565C862.042 230.358 866.167 225.152 870.742 220.092C872.002 221.073 872.689 222.095 873.638 222.714C884.303 229.665 894.997 236.573 905.724 243.43C906.665 244.032 907.92 244.12 908.981 244.562C917.093 247.94 925.14 251.35 931.503 257.809C935.175 261.536 938.922 265.485 943.37 268.07C948.231 270.896 953.961 272.213 959.271 274.291C961.811 275.286 964.257 276.521 966.746 277.647C965.513 282.403 964.28 287.159 962.508 292.306C960.833 294.835 959.824 297.055 958.506 299.074C957.885 300.026 956.32 301.429 955.781 301.202C950.329 298.913 944.802 296.675 939.695 293.73C934.451 290.707 929.893 286.47 924.585 283.595C920.288 281.267 918.131 279.002 920.445 274.107C921.126 272.667 921.291 270.908 921.312 269.291C921.316 268.942 919.68 268.572 918.67 268.56C918.634 269.138 918.73 269.366 918.81 269.569C918.795 269.543 918.835 269.499 918.835 269.499Z" fill="#248C23"/>
<path d="M966.904 277.345C964.257 276.521 961.811 275.286 959.271 274.291C953.961 272.213 948.231 270.896 943.37 268.07C938.922 265.485 935.175 261.536 931.503 257.809C925.14 251.35 917.093 247.94 908.981 244.562C907.92 244.12 906.665 244.032 905.724 243.43C894.997 236.573 884.303 229.665 873.638 222.714C872.689 222.095 872.002 221.073 871.038 219.945C871.487 218.973 872.091 218.294 873.307 217.427C874.188 216.856 874.457 216.471 874.726 216.087C877.806 213.584 880.885 211.081 884.625 208.659C888.962 210.005 892.614 211.352 896.327 212.505C898.344 213.13 900.724 212.959 902.494 213.947C910.691 218.524 919.422 222.519 926.678 228.326C939.859 238.872 955.655 244.468 969.829 253.044C969.84 254.074 969.851 255.104 969.417 256.458C969.129 256.841 969.287 256.902 969.445 256.963C968.651 263.656 967.857 270.35 966.904 277.345Z" fill="#329621"/>
<path d="M969.812 253.028C955.655 244.468 939.859 238.872 926.678 228.326C919.422 222.519 910.691 218.524 902.494 213.947C900.724 212.959 898.344 213.13 896.327 212.505C892.614 211.352 888.962 210.005 884.95 208.581C895.383 202.641 906.151 196.859 917.407 191.356C920.55 194.228 922.79 197.602 925.935 199.27C937.018 205.147 948.642 210.027 959.564 216.169C963.585 218.43 970.039 218.784 970.256 225.363C971.123 224.681 971.836 224.12 972.549 223.559C972.355 229.262 972.16 234.965 971.459 241.205C970.578 245.5 970.205 249.259 969.832 253.017C969.832 253.017 969.795 253.012 969.812 253.028Z" fill="#3A9B1E"/>
<path d="M939.441 330.705C920.24 351.878 896.221 363.967 867.931 368.477C883.781 350.399 896.177 330.275 906.453 308.778C908.106 311.09 908.968 313.939 910.883 315.252C916.59 319.163 922.629 322.617 928.7 325.958C932.116 327.838 935.85 329.142 939.441 330.705Z" fill="#07762C"/>
<path d="M939.711 330.545C935.85 329.142 932.116 327.838 928.7 325.958C922.629 322.617 916.59 319.163 910.883 315.252C908.968 313.939 908.106 311.09 906.72 308.543C910.582 297.085 914.508 286.034 918.367 274.96C918.908 273.407 919.121 271.741 919.161 269.813C918.835 269.499 918.795 269.543 919.179 269.641C919.309 269.229 919.054 268.721 918.8 268.212C919.68 268.572 921.316 268.942 921.312 269.291C921.291 270.908 921.126 272.667 920.445 274.107C918.131 279.002 920.288 281.267 924.585 283.595C929.893 286.47 934.451 290.707 939.695 293.73C944.802 296.675 950.329 298.913 955.781 301.202C956.32 301.429 957.885 300.026 958.506 299.074C959.824 297.055 960.833 294.835 962.303 292.626C958.088 306.964 949.943 319.218 939.711 330.545Z" fill="#168226"/>
<path d="M857.663 235.794C863.735 245.013 873.814 249.651 882.094 256.178C886.888 259.956 893.855 261.137 899.987 263.02C908.782 265.721 909.683 266.593 909.961 276.004C905.179 281.825 900.37 287.152 895.108 292.308C891.393 288.782 888.303 285.234 884.806 282.147C882.757 280.339 879.934 279.439 877.675 277.829C870.41 272.653 863.354 267.179 855.999 262.14C852.097 259.468 849.556 256.369 849.689 251.489C849.829 250.923 849.969 250.357 850.536 249.583C851.069 249.306 851.273 249.191 851.266 249.175C851.166 248.963 851.036 248.764 850.914 248.562C853.079 244.383 855.245 240.203 857.663 235.794Z" fill="#168226"/>
<path d="M849.427 251.719C849.556 256.369 852.097 259.468 855.999 262.14C863.354 267.179 870.41 272.653 877.675 277.829C879.934 279.439 882.757 280.339 884.806 282.147C888.303 285.234 891.393 288.782 894.804 292.46C889.073 300.242 883.194 307.7 877.024 315.339C873.503 315.575 872.423 313.52 873.278 310.964C874.612 306.976 872.898 303.886 869.965 302.47C862.615 298.92 858.744 291.81 852.741 286.962C849.566 284.398 846.265 281.991 842.471 279.094C842.452 278.707 842.381 277.312 842.035 275.71C844.228 267.651 846.697 259.8 849.427 251.719Z" fill="#07762C"/>
<path d="M972.676 223.105C971.836 224.12 971.123 224.681 970.256 225.363C970.039 218.784 963.585 218.43 959.564 216.169C948.642 210.027 937.018 205.147 925.935 199.27C922.79 197.602 920.55 194.228 917.776 191.268C925.144 187.427 932.63 183.954 940.488 180.817C941.696 186.662 946.353 187.029 950.388 188.233C960.327 191.201 971.649 192.461 972.76 206.344C972.768 206.453 973.01 206.543 973.142 206.641C973.029 211.978 972.917 217.315 972.676 223.105Z" fill="#4AA61B"/>
<path d="M917.233 269.827C917.136 269.652 917.287 269.354 917.605 269.146C917.675 269.392 917.578 269.548 917.233 269.827Z" fill="#168226"/>
<path d="M918.67 268.56C919.054 268.721 919.309 269.229 919.194 269.667C918.73 269.366 918.634 269.138 918.67 268.56Z" fill="#FEFDFD"/>
<path d="M422.985 393.219C421.572 385.185 420.159 377.15 419.206 368.706C421.256 368.385 423.044 368.994 424.401 368.476C430.318 366.217 436.411 364.158 441.879 361.044C450.862 355.927 459.36 349.965 468.171 344.535C471.389 342.552 475.021 341.248 478.282 339.324C484.963 335.382 491.517 331.224 498.131 327.168C504.524 323.248 510.926 319.345 517.325 315.434C523.879 320.447 530.434 325.459 536.717 330.816C534.711 331.64 532.788 331.79 531.271 332.653C523.973 336.806 516.782 341.147 509.558 345.429C495.776 353.598 481.301 360.647 469.132 371.385C465.191 374.863 460.813 378.057 456.165 380.481C446.295 385.628 436.116 390.185 425.497 395.254C425.359 395.142 424.172 394.18 422.985 393.219Z" fill="#329621"/>
<path d="M531.088 423.027C532.4 425.224 533.982 427.305 534.98 429.637C541.388 444.618 547.565 459.699 554.057 474.643C555.892 478.868 558.523 482.747 561.125 487.381C533.318 488.447 508.37 481.067 485.244 466.862C486.31 465.683 487.578 465.069 488.092 464.067C491.971 456.514 497.23 450.667 505.211 446.997C516.333 441.884 524.907 433.657 531.088 423.027Z" fill="#066F2E"/>
<path d="M567.986 371.287C577.047 387.839 582.285 405.702 583.633 424.344C584.597 437.674 583.345 451.171 582.934 464.589C582.866 466.811 582.039 469.009 580.997 471.336C567.645 442.831 553.95 414.737 533.37 390.43C544.543 384.388 555.503 378.822 566.427 373.185C567.095 372.84 567.473 371.933 567.986 371.287Z" fill="#066F2E"/>
<path d="M517.122 315.194C510.926 319.345 504.524 323.248 498.131 327.168C491.517 331.224 484.963 335.382 478.282 339.324C475.021 341.248 471.389 342.552 468.171 344.535C459.36 349.965 450.863 355.927 441.879 361.044C436.411 364.158 430.318 366.217 424.401 368.476C423.044 368.994 421.256 368.385 419.275 368.258C418.522 362.194 418.161 356.167 418.255 349.718C420.526 349.105 422.666 349.465 424.094 348.62C428.342 346.109 432.143 342.833 436.42 340.38C447.47 334.042 458.65 327.928 469.84 321.837C476.967 317.959 484.193 314.262 491.396 310.525C494.449 308.941 496.626 307.002 495.017 303.161C502.318 307.092 509.619 311.023 517.122 315.194Z" fill="#3A9B1E"/>
<path d="M417.12 325.228C414.104 306.304 411.088 287.379 408 268C429.22 276.158 450.853 284.474 472.512 293.295C468.236 296.173 463.839 298.393 459.649 300.952C450.103 306.783 440.52 312.572 431.233 318.8C426.809 321.767 422.83 325.267 417.12 325.228Z" fill="#58B01B"/>
<path d="M458.917 448.428C452.595 441.941 446.273 435.455 440.205 428.64C441.975 428.149 443.696 428.389 444.963 427.741C447.738 426.322 450.185 424.269 452.938 422.798C465.29 416.198 477.722 409.748 490.086 403.17C498.071 398.922 505.989 394.545 513.937 390.226C517.207 394.996 520.478 399.766 523.396 404.88C521.006 406.278 518.275 406.82 517.054 408.475C512.542 414.591 507.55 419.866 500.254 422.67C498.137 423.484 496.377 425.185 494.361 426.313C484.141 432.031 473.837 437.602 463.7 443.461C461.788 444.566 460.495 446.745 458.917 448.428Z" fill="#117D28"/>
<path d="M417.065 325.684C422.83 325.267 426.809 321.767 431.233 318.8C440.52 312.572 450.103 306.783 459.649 300.952C463.839 298.393 468.236 296.173 472.765 293.539C480.177 296.406 487.363 299.532 494.783 302.91C496.626 307.002 494.449 308.941 491.396 310.525C484.193 314.262 476.967 317.959 469.84 321.837C458.65 327.928 447.47 334.042 436.42 340.38C432.143 342.833 428.342 346.109 424.094 348.62C422.666 349.465 420.526 349.105 418.346 349.259C417.656 341.528 417.334 333.834 417.065 325.684Z" fill="#4AA61B"/>
<path d="M502.298 368.884C502.84 369.762 503.381 370.64 503.973 372.213C503.462 374.4 503.039 375.963 502.314 377.37C498.837 384.114 491.084 384.875 485.619 388.918C477.446 394.963 468.357 399.91 459.245 404.503C450.404 408.96 441.041 412.382 431.908 416.258C429.879 411.862 427.849 407.466 426.177 402.71C430.58 402.959 435.155 405.067 438.558 403.863C445.283 401.482 451.502 397.502 457.674 393.761C467.696 387.686 477.504 381.261 487.416 375.006C491.231 372.599 494.664 370.026 496.531 365.546C497.28 363.747 499.632 362.36 501.553 361.358C505.579 359.258 509.98 357.845 513.896 355.579C518.162 353.11 522.39 350.365 526.028 347.071C530.971 342.596 537.567 339.671 540.159 332.847C544.056 337.063 547.952 341.279 551.935 346.187C551.256 348.039 550.744 349.564 549.685 350.302C542.108 355.575 534.301 360.522 526.816 365.918C522.927 368.721 519.544 372.225 515.932 375.413C511.888 373.006 507.844 370.6 503.29 367.889C502.023 367.505 501.266 367.426 499.962 367.29C501.062 368.041 501.68 368.462 502.298 368.884Z" fill="#1F8825"/>
<path d="M459.061 448.725C460.495 446.745 461.788 444.566 463.7 443.461C473.837 437.602 484.141 432.031 494.361 426.313C496.377 425.185 498.137 423.484 500.254 422.67C507.55 419.866 512.542 414.591 517.054 408.475C518.275 406.82 521.006 406.278 523.434 405.225C526.245 410.914 528.668 416.604 531.089 422.66C524.907 433.657 516.333 441.884 505.211 446.997C497.23 450.667 491.971 456.514 488.092 464.067C487.578 465.069 486.31 465.683 485.013 466.621C484.635 466.765 484.647 466.745 484.608 466.392C483.943 465.875 483.317 465.712 482.69 465.549C482.69 465.549 483.019 465.386 482.949 465.056C482.877 458.841 481.926 458.016 476.474 459.152C475.515 459.352 474.55 459.524 473.588 459.708C473.588 459.708 473.857 459.385 473.713 459.21C472.949 458.799 472.329 458.564 471.709 458.329C467.541 455.227 463.373 452.125 459.061 448.725Z" fill="#07762C"/>
<path d="M540.03 332.569C537.567 339.671 530.971 342.596 526.028 347.071C522.39 350.365 518.162 353.11 513.896 355.579C509.98 357.845 505.579 359.258 501.553 361.358C499.632 362.36 497.28 363.747 496.531 365.546C494.664 370.026 491.231 372.599 487.416 375.006C477.504 381.261 467.696 387.687 457.674 393.761C451.502 397.502 445.283 401.482 438.558 403.863C435.155 405.067 430.58 402.96 426.149 402.32C424.832 399.521 423.901 396.752 422.977 393.601C424.172 394.18 425.359 395.142 425.497 395.254C436.116 390.185 446.295 385.628 456.165 380.481C460.813 378.057 465.191 374.863 469.132 371.385C481.301 360.647 495.776 353.598 509.558 345.429C516.782 341.147 523.973 336.806 531.271 332.653C532.788 331.79 534.711 331.64 536.857 331.13C538.145 331.496 539.023 331.893 540.03 332.569Z" fill="#288E23"/>
<path d="M431.96 416.609C441.041 412.382 450.404 408.96 459.245 404.503C468.357 399.91 477.446 394.963 485.619 388.918C491.084 384.875 498.837 384.114 502.314 377.37C503.039 375.963 503.462 374.4 504.032 372.519C507.414 377.908 510.788 383.688 514.05 389.847C505.989 394.545 498.071 398.922 490.086 403.17C477.722 409.748 465.29 416.198 452.938 422.798C450.185 424.269 447.738 426.322 444.963 427.741C443.696 428.389 441.975 428.149 440.093 428.312C437.154 424.529 434.583 420.745 431.96 416.609Z" fill="#1A8426"/>
<path d="M516.076 375.716C519.544 372.225 522.927 368.721 526.816 365.918C534.301 360.522 542.108 355.575 549.685 350.302C550.744 349.564 551.256 348.039 552.031 346.504C557.331 354.277 562.62 362.425 567.948 370.93C567.473 371.933 567.095 372.84 566.427 373.185C555.503 378.822 544.543 384.388 533.249 390.113C527.344 385.511 521.782 380.765 516.076 375.716Z" fill="#117D28"/>
<path d="M502.507 368.701C501.68 368.462 501.062 368.041 499.962 367.29C501.266 367.426 502.023 367.505 502.939 367.85C502.969 368.25 502.842 368.384 502.507 368.701Z" fill="#FEFDFD"/>
<path d="M141.007 379.136C149.453 380.455 157.9 381.774 166.764 383.685C167.488 387.508 168.796 391.052 167.903 393.908C165.799 400.638 161.915 406.816 162.88 414.359C163.026 415.499 161.676 416.831 161.018 418.074C158.97 417.72 156.921 417.366 154.159 416.889C156.607 419.475 158.594 421.573 160.473 424.163C155.419 430.489 149.872 435.925 145.688 442.26C141.146 449.138 135.977 454.914 128.633 458.665C128.633 458.665 128.694 458.496 128.696 458.368C128.463 458.232 128.228 458.225 127.994 458.217C122.572 452.954 117.15 447.69 111.988 441.945C115.763 438.504 119.982 436.068 122.653 432.48C128.931 424.046 134.524 415.097 140.257 406.266C141.197 404.817 141.436 402.912 142.346 401.164C143.709 399.655 144.876 398.283 145.711 396.732C148.074 392.342 149.15 388.22 144.067 384.583C142.533 383.485 141.999 380.991 141.007 379.136Z" fill="#1A8426"/>
<path d="M141.999 401.218C141.436 402.912 141.197 404.817 140.257 406.266C134.524 415.097 128.931 424.046 122.653 432.48C119.982 436.068 115.763 438.504 111.887 441.628C111.525 441.793 111.556 441.745 111.559 441.376C111.187 440.788 110.812 440.567 110.438 440.347C110.155 440.305 109.971 440.148 109.877 439.323C109.411 438.293 108.952 437.815 108.492 437.338C105.728 432.307 102.964 427.277 100.558 421.811C102.971 419.918 105.659 418.884 106.962 416.928C110.787 411.185 114.098 405.097 117.544 399.106C122.419 390.63 122.393 390.615 117.442 384.219C125.422 385.24 132.97 386.132 140.464 387.357C143.411 387.839 144.421 389.954 143.622 392.988C142.911 395.687 142.527 398.472 141.999 401.218Z" fill="#288E23"/>
<path d="M170.994 433.224C185.03 443.122 199.066 453.021 213.402 463.132C195.706 472.955 176.941 475.181 157.477 470.603C163.674 470.035 163.46 469.674 162.033 463.792C161.222 460.451 161.08 454.902 163.044 453.303C169.763 447.831 168.576 439.945 170.994 433.224Z" fill="#066F2E"/>
<path d="M170.994 433.217C168.576 439.945 169.763 447.832 163.044 453.304C161.08 454.903 161.222 460.451 162.033 463.792C163.46 469.674 163.674 470.035 157.294 470.25C149.131 467.541 141.38 464.881 133.696 462.042C132.021 461.423 130.582 460.164 128.834 458.932C135.977 454.914 141.146 449.138 145.688 442.26C149.872 435.925 155.419 430.489 160.624 424.456C163.192 426.219 165.501 428.181 168.055 430.736C168.673 431.526 169.045 431.723 169.418 431.919C169.418 431.919 169.226 431.936 169.296 432.169C169.904 432.673 170.443 432.944 170.982 433.214C170.982 433.214 170.995 433.211 170.994 433.217Z" fill="#117D28"/>
<path d="M197.151 400.77C211.052 413.621 218.407 429.861 222.433 448.004C208.026 440.123 194.106 432.509 180.257 424.443C183.201 419.112 185.97 414.168 189.016 409.401C189.826 408.132 191.423 406.678 192.764 406.567C196.699 406.24 197.204 403.837 197.151 400.77Z" fill="#066F2E"/>
<path d="M116.989 384.223C122.393 390.615 122.419 390.63 117.544 399.106C114.098 405.097 110.787 411.185 106.962 416.928C105.659 418.884 102.971 419.918 100.484 421.432C94.4009 408.962 88.7505 396.435 83.5032 383.557C94.9337 383.545 105.961 383.884 116.989 384.223Z" fill="#3A9B1E"/>
<path d="M197.112 400.582C197.204 403.837 196.699 406.24 192.764 406.567C191.423 406.678 189.826 408.132 189.016 409.401C185.97 414.168 183.201 419.112 180.023 424.171C173.707 422.374 167.696 420.396 161.352 418.245C161.676 416.831 163.026 415.499 162.88 414.359C161.915 406.816 165.799 400.638 167.903 393.908C168.796 391.052 167.488 387.508 167.046 383.862C176.942 387.014 186.71 391.074 195.062 398.882C195.689 399.673 196.049 399.878 196.41 400.082C196.696 400.048 196.917 400.152 197.112 400.582Z" fill="#117D28"/>
<path d="M117.442 384.219C105.961 383.884 94.9337 383.545 83.448 383.201C80.5983 380.226 82.3854 379.307 85.0989 379.28C103.478 379.094 121.857 378.993 140.622 379C141.999 380.991 142.533 383.485 144.067 384.583C149.15 388.22 148.074 392.342 145.711 396.732C144.876 398.283 143.709 399.655 142.346 401.164C142.527 398.472 142.911 395.687 143.622 392.988C144.421 389.954 143.411 387.839 140.464 387.357C132.97 386.132 125.422 385.24 117.442 384.219Z" fill="#248C23"/>
<path d="M170.86 432.955C170.443 432.944 169.904 432.673 169.339 432.084C169.789 432.075 170.264 432.386 170.86 432.955Z" fill="#066F2E"/>
<path d="M108.598 437.65C108.952 437.815 109.411 438.293 109.885 439.133C109.501 438.985 109.102 438.474 108.598 437.65Z" fill="#1A8426"/>
<path d="M169.281 431.642C169.045 431.723 168.673 431.526 168.21 431.01C168.461 430.915 168.803 431.14 169.281 431.642Z" fill="#066F2E"/>
<path d="M196.27 399.806C196.049 399.878 195.689 399.673 195.213 399.171C195.441 399.092 195.786 399.31 196.27 399.806Z" fill="#066F2E"/>
<path d="M110.554 440.632C110.812 440.567 111.187 440.788 111.572 441.351C111.279 441.435 110.975 441.176 110.554 440.632Z" fill="#1A8426"/>
<path d="M137.528 380.762C137.585 380.728 137.472 380.796 137.528 380.762Z" fill="#1A8426"/>
<path d="M896.556 662.786C927.026 652.777 956.403 655.58 983.539 672.55C997.941 681.557 1011.06 692.709 1024.39 703.355C1037.3 713.66 1050.25 723.733 1065.88 729.628C1066.56 729.885 1067.14 730.429 1068 730.996C1067.27 731.896 1066.82 732.741 1066.13 733.265C1037.29 755.173 1006.92 774.372 972.013 786.257C969.032 785.722 966.605 785.443 964.16 785.162C963.187 786.019 962 787.065 960.813 788.11C959.685 786.724 958.421 785.421 957.492 783.911C957.085 783.248 957.389 782.159 957.319 781.267C957.09 778.359 952.053 774.376 947.748 773.36C943.943 772.463 943.828 775.712 942.757 777.68C940.121 782.52 938.105 782.623 934.245 777.581C937.979 772.471 944.99 769.288 944.873 761.635C944.839 759.341 944.473 756.867 943.522 754.821C942.463 752.543 940.69 752.733 938.161 753.787C933.505 755.727 928.432 756.654 923.532 758.003C923.164 757.513 922.795 757.024 922.427 756.535C924.458 753.722 926.021 750.308 928.639 748.245C931.986 745.608 936.203 744.095 940.002 742.018C940.95 741.5 941.733 740.678 942.592 739.995C942.592 739.995 942.609 740.055 942.932 740.006C943.935 738.753 945.431 736.743 945.167 736.473C943.243 734.508 940.966 732.893 938.168 730.664C938.333 727.186 935.641 725.92 931.614 725.794C928.999 725.712 926.167 724.702 926.741 721.421C927.958 714.457 923.516 710.712 919.307 706.684C917.459 704.916 915.7 704.31 913.704 706.51C911.374 709.076 910.219 707.653 909.799 705.084C909.616 703.97 910.017 702.76 910.204 701.15C911.742 701.819 912.781 702.271 914.422 702.986C913.208 696.647 912.332 690.729 910.804 684.986C910.395 683.452 907.989 682.456 906.502 681.21C904.767 679.754 902.296 678.635 901.448 676.771C899.411 672.296 898.138 667.47 896.556 662.786Z" fill="#F00317"/>
<path d="M942.215 740.021C941.733 740.678 940.95 741.5 940.002 742.018C936.203 744.095 931.986 745.608 928.639 748.245C926.021 750.308 924.458 753.722 922.427 756.535C922.795 757.024 923.164 757.513 923.532 758.003C928.432 756.654 933.505 755.727 938.161 753.787C940.69 752.733 942.463 752.543 943.522 754.821C944.473 756.867 944.839 759.341 944.873 761.635C944.99 769.288 937.979 772.471 934.245 777.581C938.105 782.623 940.121 782.52 942.757 777.68C943.828 775.712 943.943 772.463 947.748 773.36C952.053 774.376 957.09 778.359 957.319 781.267C957.389 782.159 957.085 783.248 957.492 783.911C958.421 785.421 959.685 786.724 960.813 788.11C962 787.065 963.187 786.019 964.16 785.162C966.605 785.443 969.032 785.722 971.65 786.265C960.497 789.075 949.153 791.622 937.385 793.715C936.633 792.606 936.473 791.616 935.949 791.349C931.921 789.302 922.972 789.816 917.492 792.973C921.954 792.973 925.116 792.814 928.255 793.026C930.601 793.184 932.915 793.82 935.243 794.243C933.826 794.433 932.409 794.622 930.41 794.523C928.473 794.452 927.118 794.67 925.763 794.888C924.111 794.972 922.459 795.056 920.216 794.771C918.231 794.499 916.839 794.596 915.446 794.693C892.556 794.156 872.091 786.063 853.092 773.916C839.528 765.243 827.598 754.609 818.062 741.458C817.537 740.734 817.072 739.967 816 738.343C821.697 739.758 826.474 740.945 831.673 742.374C832.096 742.617 832.336 742.701 832.336 742.701L832.559 742.576C837.433 743.523 842.308 744.469 847.597 745.749C848.436 746.02 848.86 745.957 849.283 745.894C851.096 746.091 852.909 746.288 855.153 746.786C855.984 747.015 856.385 746.942 856.786 746.869C859.217 747.05 861.647 747.23 864.607 747.736C866.103 747.981 867.069 747.9 868.035 747.819C869.74 747.853 871.445 747.887 873.415 748.366C871.145 749.241 868.61 749.672 866.076 750.103C866.975 751.093 867.809 751.319 868.654 751.375C878.377 752.019 888.1 752.665 897.827 753.247C901.158 753.447 904.282 753.07 905.454 749.788C901.758 749.185 898.222 748.608 894.687 748.031C895.458 747.92 896.229 747.809 897.473 747.916C898.336 747.984 898.725 747.836 899.114 747.687C913.837 747.861 927.726 743.323 942.215 740.021ZM907.839 777.96C907.938 780.635 908.66 782.442 911.825 780.86C916.394 778.576 920.589 769.324 919.486 764.656C917.875 764.198 916.522 763.738 915.133 763.446C914.312 763.274 912.951 763.007 912.662 763.399C910.358 766.529 904.92 768.223 907.768 773.868C908.211 774.745 907.834 776.04 907.839 777.96ZM911.946 792.962C912.61 792.661 913.274 792.361 913.938 792.061C913.861 791.763 913.783 791.465 913.706 791.167C912.241 791.24 910.775 791.314 909.31 791.387C909.298 791.738 909.286 792.088 909.274 792.438C909.929 792.613 910.585 792.788 911.946 792.962Z" fill="#F50415"/>
<path d="M896.238 662.784C898.138 667.47 899.411 672.296 901.448 676.771C902.296 678.635 904.767 679.754 906.502 681.21C907.989 682.456 910.395 683.452 910.803 684.986C912.332 690.729 913.208 696.647 914.422 702.986C912.781 702.271 911.742 701.819 910.204 701.15C910.017 702.76 909.616 703.97 909.799 705.084C910.219 707.653 911.374 709.076 913.704 706.51C915.7 704.31 917.459 704.916 919.307 706.684C923.516 710.712 927.958 714.457 926.741 721.421C926.167 724.702 928.999 725.712 931.614 725.794C935.641 725.92 938.333 727.186 938.168 730.664C940.966 732.893 943.243 734.508 945.167 736.473C945.431 736.743 943.935 738.753 942.908 739.986C941.437 739.18 940.427 737.913 939.17 737.577C920.865 732.686 902.591 727.651 884.18 723.194C863.385 718.16 842.17 716.813 820.827 717.204C819.77 717.223 818.71 717.043 817.626 716.954C820.732 702.938 858.313 675.91 889.674 665.528C890.769 666.171 891.383 666.559 891.997 666.947C891.952 666.124 891.907 665.302 891.862 664.479C893.215 663.913 894.567 663.348 896.238 662.784ZM925.096 727.834C923.672 728.154 922.248 728.475 919.901 729.003C925.379 731.258 925.835 731.119 925.096 727.834Z" fill="#F50415"/>
<path d="M894.252 747.95C898.222 748.608 901.758 749.185 905.454 749.788C904.282 753.07 901.158 753.447 897.827 753.247C888.1 752.665 878.377 752.019 868.654 751.375C867.809 751.319 866.975 751.093 866.076 750.103C868.61 749.672 871.145 749.241 873.819 748.499C880.578 748.081 887.198 747.975 894.252 747.95Z" fill="#F00317"/>
<path d="M935.539 794.323C932.915 793.82 930.601 793.184 928.255 793.026C925.116 792.814 921.954 792.973 917.492 792.973C922.972 789.816 931.921 789.302 935.949 791.349C936.473 791.616 936.633 792.606 936.971 793.641C936.598 794.149 936.217 794.276 935.539 794.323Z" fill="#F00317"/>
<path d="M915.704 794.828C916.839 794.596 918.231 794.499 919.816 794.658C918.659 794.93 917.311 794.946 915.704 794.828Z" fill="#FC3105"/>
<path d="M926.03 795C927.118 794.67 928.473 794.452 930.052 794.456C928.949 794.822 927.623 794.967 926.03 795Z" fill="#FC3105"/>
<path d="M867.844 747.685C867.069 747.9 866.103 747.981 865.001 747.841C865.794 747.597 866.724 747.574 867.844 747.685Z" fill="#FD6104"/>
<path d="M849.187 745.763C848.86 745.957 848.436 746.02 847.951 745.894C848.29 745.681 848.69 745.656 849.187 745.763Z" fill="#FD6104"/>
<path d="M856.693 746.743C856.385 746.942 855.984 747.015 855.523 746.91C855.842 746.695 856.221 746.656 856.693 746.743Z" fill="#FD6104"/>
<path d="M899.005 747.575C898.725 747.836 898.336 747.984 897.862 747.964C898.151 747.684 898.524 747.574 899.005 747.575Z" fill="#FD6104"/>
<path d="M907.838 777.551C907.834 776.04 908.211 774.745 907.768 773.868C904.92 768.223 910.358 766.529 912.662 763.399C912.951 763.007 914.312 763.274 915.133 763.446C916.522 763.738 917.875 764.198 919.486 764.656C920.589 769.324 916.394 778.576 911.825 780.86C908.66 782.442 907.938 780.635 907.838 777.551Z" fill="#F00317"/>
<path d="M911.593 792.962C910.585 792.788 909.929 792.613 909.274 792.438C909.286 792.088 909.298 791.738 909.31 791.387C910.775 791.314 912.241 791.24 913.706 791.167C913.783 791.465 913.861 791.763 913.938 792.061C913.274 792.361 912.61 792.661 911.593 792.962Z" fill="#F00317"/>
<path d="M925.432 727.93C925.835 731.119 925.379 731.258 919.901 729.003C922.248 728.475 923.672 728.154 925.432 727.93Z" fill="#F00317"/>
</g>
<defs>
<clipPath id="clip0_1_2">
<rect width="1254" height="1254" fill="white"/>
</clipPath>
</defs>
</svg>
